solid link2_ascii.stl
facet normal 0.49002015590667725 0.8717110753059387 0.0
outer loop
vertex 11.669378280639648 17.632518768310547 -10.0
vertex 8.998391151428223 19.133975982666016 -10.0
vertex 11.669378280639648 17.632518768310547 0.0
endloop
endfacet
facet normal 0.9362938404083252 0.35121768712997437 0.0
outer loop
vertex 19.226701736450195 8.798526763916016 -10.0
vertex 20.26999282836914 6.017268657684326 0.0
vertex 20.26999282836914 6.017268657684326 -10.0
endloop
endfacet
facet normal 0.9362938404083252 0.35121768712997437 -3.782349816515299e-15
outer loop
vertex 19.226701736450195 8.798526763916016 0.0
vertex 20.26999282836914 6.017268657684326 0.0
vertex 19.226701736450195 8.798526763916016 -10.0
endloop
endfacet
facet normal 0.9362938404083252 -0.35121768712997437 0.0
outer loop
vertex 19.226701736450195 -8.798526763916016 0.0
vertex 20.26999282836914 -6.017268657684326 -10.0
vertex 20.26999282836914 -6.017268657684326 0.0
endloop
endfacet
facet normal 0.9362938404083252 -0.35121768712997437 3.842149919074979e-15
outer loop
vertex 19.226701736450195 -8.798526763916016 -10.0
vertex 20.26999282836914 -6.017268657684326 -10.0
vertex 19.226701736450195 -8.798526763916016 0.0
endloop
endfacet
facet normal 0.878832221031189 0.4771309792995453 3.52609863304835e-15
outer loop
vertex 17.851394653320312 11.331719398498535 -10.0
vertex 19.226701736450195 8.798526763916016 0.0
vertex 19.226701736450195 8.798526763916016 -10.0
endloop
endfacet
facet normal 0.878832221031189 0.4771309792995453 0.0
outer loop
vertex 17.851394653320312 11.331719398498535 0.0
vertex 19.226701736450195 8.798526763916016 0.0
vertex 17.851394653320312 11.331719398498535 -10.0
endloop
endfacet
facet normal 0.878832221031189 -0.4771309792995453 -3.441343034038427e-15
outer loop
vertex 17.851394653320312 -11.331719398498535 0.0
vertex 19.226701736450195 -8.798526763916016 -10.0
vertex 19.226701736450195 -8.798526763916016 0.0
endloop
endfacet
facet normal 0.878832221031189 -0.4771309792995453 0.0
outer loop
vertex 17.851394653320312 -11.331719398498535 -10.0
vertex 19.226701736450195 -8.798526763916016 -10.0
vertex 17.851394653320312 -11.331719398498535 0.0
endloop
endfacet
facet normal 0.3588850200176239 0.9333817958831787 -0.0
outer loop
vertex 8.998391151428223 19.133975982666016 0.0
vertex 6.13844108581543 20.233627319335938 -10.0
vertex 6.13844108581543 20.233627319335938 0.0
endloop
endfacet
facet normal 0.3588850200176239 0.9333817958831787 0.0
outer loop
vertex 8.998391151428223 19.133975982666016 -10.0
vertex 6.13844108581543 20.233627319335938 -10.0
vertex 8.998391151428223 19.133975982666016 0.0
endloop
endfacet
facet normal 0.49002015590667725 0.8717110753059387 -0.0
outer loop
vertex 11.669378280639648 17.632518768310547 0.0
vertex 8.998391151428223 19.133975982666016 -10.0
vertex 8.998391151428223 19.133975982666016 0.0
endloop
endfacet
facet normal 0.9765897393226624 -0.21511037647724152 0.0
outer loop
vertex 20.26999282836914 -6.017268657684326 -10.0
vertex 20.922258377075195 -3.0560197830200195 -10.0
vertex 20.26999282836914 -6.017268657684326 0.0
endloop
endfacet
facet normal 0.2209496945142746 0.9752852320671082 0.0
outer loop
vertex 3.181147575378418 20.90359878540039 -10.0
vertex 6.13844108581543 20.233627319335938 0.0
vertex 6.13844108581543 20.233627319335938 -10.0
endloop
endfacet
facet normal 0.2209496945142746 0.9752852320671082 0.0
outer loop
vertex 3.181147575378418 20.90359878540039 0.0
vertex 6.13844108581543 20.233627319335938 0.0
vertex 3.181147575378418 20.90359878540039 -10.0
endloop
endfacet
facet normal 0.610267162322998 0.7921956777572632 -0.0
outer loop
vertex 14.071500778198242 15.7820463180542 0.0
vertex 11.669378280639648 17.632518768310547 -10.0
vertex 11.669378280639648 17.632518768310547 0.0
endloop
endfacet
facet normal 0.610267162322998 0.7921956777572632 0.0
outer loop
vertex 14.071500778198242 15.7820463180542 -10.0
vertex 11.669378280639648 17.632518768310547 -10.0
vertex 14.071500778198242 15.7820463180542 0.0
endloop
endfacet
facet normal 0.08063400536775589 0.9967437982559204 0.0
outer loop
vertex 0.22032371163368225 21.14312171936035 -10.0
vertex 3.181147575378418 20.90359878540039 0.0
vertex 3.181147575378418 20.90359878540039 -10.0
endloop
endfacet
facet normal 0.08063400536775589 0.9967437982559204 -3.558099961312091e-15
outer loop
vertex 0.22032371163368225 21.14312171936035 0.0
vertex 3.181147575378418 20.90359878540039 0.0
vertex 0.22032371163368225 21.14312171936035 -10.0
endloop
endfacet
facet normal 0.7162852883338928 0.6978075504302979 -0.0
outer loop
vertex 16.144336700439453 13.654322624206543 0.0
vertex 14.071500778198242 15.7820463180542 -10.0
vertex 14.071500778198242 15.7820463180542 0.0
endloop
endfacet
facet normal 0.7162852883338928 0.6978075504302979 3.737499845474657e-15
outer loop
vertex 16.144336700439453 13.654322624206543 -10.0
vertex 14.071500778198242 15.7820463180542 -10.0
vertex 16.144336700439453 13.654322624206543 0.0
endloop
endfacet
facet normal -0.057762082666158676 0.9983303546905518 3.764933125053856e-15
outer loop
vertex -2.6573166847229004 20.976625442504883 -10.0
vertex 0.22032371163368225 21.14312171936035 0.0
vertex 0.22032371163368225 21.14312171936035 -10.0
endloop
endfacet
facet normal -0.057762082666158676 0.9983303546905518 0.0
outer loop
vertex -2.6573166847229004 20.976625442504883 0.0
vertex 0.22032371163368225 21.14312171936035 0.0
vertex -2.6573166847229004 20.976625442504883 -10.0
endloop
endfacet
facet normal 0.8057733774185181 0.5922240018844604 -3.5254536174590158e-15
outer loop
vertex 17.851394653320312 11.331719398498535 0.0
vertex 16.144336700439453 13.654322624206543 -10.0
vertex 16.144336700439453 13.654322624206543 0.0
endloop
endfacet
facet normal 0.08063400536775589 -0.9967437982559204 3.860837159957303e-15
outer loop
vertex 0.22032371163368225 -21.14312171936035 -10.0
vertex 3.181147575378418 -20.90359878540039 -10.0
vertex 0.22032371163368225 -21.14312171936035 0.0
endloop
endfacet
facet normal 0.49002015590667725 -0.8717110753059387 0.0
outer loop
vertex 8.998391151428223 -19.133975982666016 0.0
vertex 11.669378280639648 -17.632518768310547 -10.0
vertex 11.669378280639648 -17.632518768310547 0.0
endloop
endfacet
facet normal 0.49002015590667725 -0.8717110753059387 -8.696055812052394e-17
outer loop
vertex 8.998391151428223 -19.133975982666016 -10.0
vertex 11.669378280639648 -17.632518768310547 -10.0
vertex 8.998391151428223 -19.133975982666016 0.0
endloop
endfacet
facet normal 0.3588850200176239 -0.9333817958831787 -6.375078995712714e-17
outer loop
vertex 6.13844108581543 -20.233627319335938 0.0
vertex 8.998391151428223 -19.133975982666016 -10.0
vertex 8.998391151428223 -19.133975982666016 0.0
endloop
endfacet
facet normal 0.3588850200176239 -0.9333817958831787 0.0
outer loop
vertex 6.13844108581543 -20.233627319335938 -10.0
vertex 8.998391151428223 -19.133975982666016 -10.0
vertex 6.13844108581543 -20.233627319335938 0.0
endloop
endfacet
facet normal 0.610267162322998 -0.7921956777572632 0.0
outer loop
vertex 14.071500778198242 -15.7820463180542 -10.0
vertex 11.669378280639648 -17.632518768310547 0.0
vertex 11.669378280639648 -17.632518768310547 -10.0
endloop
endfacet
facet normal 0.610267162322998 -0.7921956777572632 -5.85824344644868e-16
outer loop
vertex 14.071500778198242 -15.7820463180542 0.0
vertex 11.669378280639648 -17.632518768310547 0.0
vertex 14.071500778198242 -15.7820463180542 -10.0
endloop
endfacet
facet normal 0.2209496945142746 -0.9752852320671082 0.0
outer loop
vertex 3.181147575378418 -20.90359878540039 0.0
vertex 6.13844108581543 -20.233627319335938 -10.0
vertex 6.13844108581543 -20.233627319335938 0.0
endloop
endfacet
facet normal 0.2209496945142746 -0.9752852320671082 0.0
outer loop
vertex 3.181147575378418 -20.90359878540039 -10.0
vertex 6.13844108581543 -20.233627319335938 -10.0
vertex 3.181147575378418 -20.90359878540039 0.0
endloop
endfacet
facet normal 0.7162852883338928 -0.6978075504302979 -6.296245242265062e-16
outer loop
vertex 16.144336700439453 -13.654322624206543 -10.0
vertex 14.071500778198242 -15.7820463180542 0.0
vertex 14.071500778198242 -15.7820463180542 -10.0
endloop
endfacet
facet normal 0.7162852883338928 -0.6978075504302979 -3.8271997875559405e-15
outer loop
vertex 16.144336700439453 -13.654322624206543 0.0
vertex 14.071500778198242 -15.7820463180542 0.0
vertex 16.144336700439453 -13.654322624206543 -10.0
endloop
endfacet
facet normal 0.08063400536775589 -0.9967437982559204 0.0
outer loop
vertex 0.22032371163368225 -21.14312171936035 0.0
vertex 3.181147575378418 -20.90359878540039 -10.0
vertex 3.181147575378418 -20.90359878540039 0.0
endloop
endfacet
facet normal 0.8057733774185181 0.5922240018844604 0.0
outer loop
vertex 17.851394653320312 11.331719398498535 -10.0
vertex 16.144336700439453 13.654322624206543 -10.0
vertex 17.851394653320312 11.331719398498535 0.0
endloop
endfacet
facet normal 0.8057733774185181 -0.5922240018844604 3.4961215017703098e-15
outer loop
vertex 17.851394653320312 -11.331719398498535 -10.0
vertex 16.144336700439453 -13.654322624206543 0.0
vertex 16.144336700439453 -13.654322624206543 -10.0
endloop
endfacet
facet normal 0.8057733774185181 -0.5922240018844604 0.0
outer loop
vertex 17.851394653320312 -11.331719398498535 0.0
vertex 16.144336700439453 -13.654322624206543 0.0
vertex 17.851394653320312 -11.331719398498535 -10.0
endloop
endfacet
facet normal -0.057762082666158676 -0.9983303546905518 -3.372899807284964e-15
outer loop
vertex -2.6573166847229004 -20.976625442504883 0.0
vertex 0.22032371163368225 -21.14312171936035 -10.0
vertex 0.22032371163368225 -21.14312171936035 0.0
endloop
endfacet
facet normal -0.057762082666158676 -0.9983303546905518 0.0
outer loop
vertex -2.6573166847229004 -20.976625442504883 -10.0
vertex 0.22032371163368225 -21.14312171936035 -10.0
vertex -2.6573166847229004 -20.976625442504883 0.0
endloop
endfacet
facet normal 0.9973715543746948 0.07245635241270065 -0.0
outer loop
vertex 21.144269943237305 -2.407945050696288e-15 0.0
vertex 20.922258377075195 3.0560197830200195 -10.0
vertex 20.922258377075195 3.0560197830200195 0.0
endloop
endfacet
facet normal 0.9973715543746948 0.07245635241270065 3.6958236539478184e-16
outer loop
vertex 21.144269943237305 -4.81589052490905e-16 -10.0
vertex 20.922258377075195 3.0560197830200195 -10.0
vertex 21.144269943237305 -2.407945050696288e-15 0.0
endloop
endfacet
facet normal 0.9973715543746948 -0.07245635241270065 3.4037989868656497e-16
outer loop
vertex 20.922258377075195 -3.0560197830200195 0.0
vertex 21.144269943237305 -4.81589052490905e-16 -10.0
vertex 21.144269943237305 -2.407945050696288e-15 0.0
endloop
endfacet
facet normal 0.9973715543746948 -0.07245635241270065 0.0
outer loop
vertex 20.922258377075195 -3.0560197830200195 -10.0
vertex 21.144269943237305 -4.81589052490905e-16 -10.0
vertex 20.922258377075195 -3.0560197830200195 0.0
endloop
endfacet
facet normal 0.9765897393226624 0.21511037647724152 0.0
outer loop
vertex 20.26999282836914 6.017268657684326 -10.0
vertex 20.922258377075195 3.0560197830200195 0.0
vertex 20.922258377075195 3.0560197830200195 -10.0
endloop
endfacet
facet normal 0.9765897393226624 0.21511037647724152 0.0
outer loop
vertex 20.26999282836914 6.017268657684326 0.0
vertex 20.922258377075195 3.0560197830200195 0.0
vertex 20.26999282836914 6.017268657684326 -10.0
endloop
endfacet
facet normal 0.9765897393226624 -0.21511037647724152 0.0
outer loop
vertex 20.26999282836914 -6.017268657684326 0.0
vertex 20.922258377075195 -3.0560197830200195 -10.0
vertex 20.922258377075195 -3.0560197830200195 0.0
endloop
endfacet
facet normal -0.1256755143404007 -0.9920713901519775 0.0
outer loop
vertex -61.084598541259766 -13.57506275177002 -10.0
vertex -2.6573166847229004 -20.976625442504883 -10.0
vertex -61.084598541259766 -13.57506275177002 0.0
endloop
endfacet
facet normal -0.9040924906730652 -0.4273368716239929 0.0
outer loop
vertex -72.22344970703125 -4.6794962882995605 0.0
vertex -71.1429443359375 -6.965456485748291 -10.0
vertex -71.1429443359375 -6.965456485748291 0.0
endloop
endfacet
facet normal -0.9040924906730652 -0.4273368716239929 1.4050908636739027e-15
outer loop
vertex -72.22344970703125 -4.6794962882995605 -10.0
vertex -71.1429443359375 -6.965456485748291 -10.0
vertex -72.22344970703125 -4.6794962882995605 0.0
endloop
endfacet
facet normal -0.3761386573314667 -0.9265633821487427 -2.0534374894824687e-16
outer loop
vertex -63.35922622680664 -13.087593078613281 -10.0
vertex -65.62330627441406 -12.168488502502441 0.0
vertex -65.62330627441406 -12.168488502502441 -10.0
endloop
endfacet
facet normal -0.3761386573314667 -0.9265633821487427 -1.21966469584546e-13
outer loop
vertex -63.35922622680664 -13.087593078613281 0.0
vertex -65.62330627441406 -12.168488502502441 0.0
vertex -63.35922622680664 -13.087593078613281 -10.0
endloop
endfacet
facet normal -0.9664884805679321 -0.25671008229255676 1.4418640579251193e-15
outer loop
vertex -72.85072326660156 -2.317856550216675 0.0
vertex -72.22344970703125 -4.6794962882995605 -10.0
vertex -72.22344970703125 -4.6794962882995605 0.0
endloop
endfacet
facet normal -0.9664884805679321 -0.25671008229255676 7.325076553351198e-14
outer loop
vertex -72.85072326660156 -2.317856550216675 -10.0
vertex -72.22344970703125 -4.6794962882995605 -10.0
vertex -72.85072326660156 -2.317856550216675 0.0
endloop
endfacet
facet normal -0.20954932272434235 -0.9777981042861938 1.1654433386236451e-13
outer loop
vertex -61.084598541259766 -13.57506275177002 -10.0
vertex -63.35922622680664 -13.087593078613281 0.0
vertex -63.35922622680664 -13.087593078613281 -10.0
endloop
endfacet
facet normal -0.20954932272434235 -0.9777981042861938 0.0
outer loop
vertex -61.084598541259766 -13.57506275177002 0.0
vertex -63.35922622680664 -13.087593078613281 0.0
vertex -61.084598541259766 -13.57506275177002 -10.0
endloop
endfacet
facet normal -0.9963807463645935 -0.08500262349843979 -6.993881927590262e-14
outer loop
vertex -73.04846954345703 1.6756967144979703e-15 0.0
vertex -72.85072326660156 -2.317856550216675 -10.0
vertex -72.85072326660156 -2.317856550216675 0.0
endloop
endfacet
facet normal -0.9963807463645935 -0.08500262349843979 0.0
outer loop
vertex -73.04846954345703 1.6756967144979703e-15 -10.0
vertex -72.85072326660156 -2.317856550216675 -10.0
vertex -73.04846954345703 1.6756967144979703e-15 0.0
endloop
endfacet
facet normal -0.1256755143404007 -0.9920713901519775 0.0
outer loop
vertex -61.084598541259766 -13.57506275177002 0.0
vertex -2.6573166847229004 -20.976625442504883 -10.0
vertex -2.6573166847229004 -20.976625442504883 0.0
endloop
endfacet
facet normal -0.5375709533691406 -0.8432185053825378 -4.742181717838981e-16
outer loop
vertex -65.62330627441406 -12.168488502502441 0.0
vertex -67.75535583496094 -10.8092622756958 0.0
vertex -65.62330627441406 -12.168488502502441 -10.0
endloop
endfacet
facet normal 4.658221165129174e-16 -1.7421565077263188e-15 -1.0
outer loop
vertex 20.26999282836914 6.017268657684326 -10.0
vertex 4.648941516876221 1.8404735326766968 -10.0
vertex 4.1849775314331055 2.736048698425293 -10.0
endloop
endfacet
facet normal 0.0 0.0 -1.0
outer loop
vertex 5.0 1.3322676295501878e-15 -10.0
vertex 4.648941516876221 1.8404735326766968 -10.0
vertex 20.26999282836914 6.017268657684326 -10.0
endloop
endfacet
facet normal -2.9407882785837877e-16 1.9829877740258585e-15 -1.0
outer loop
vertex 3.535533905029297 3.535533905029297 -10.0
vertex 20.26999282836914 6.017268657684326 -10.0
vertex 4.1849775314331055 2.736048698425293 -10.0
endloop
endfacet
facet normal 0.0 0.0 -1.0
outer loop
vertex 4.648941516876221 -1.8404735326766968 -10.0
vertex 5.0 1.3322676295501878e-15 -10.0
vertex 20.26999282836914 6.017268657684326 -10.0
endloop
endfacet
facet normal 0.0 -0.0 -1.0
outer loop
vertex 2.736048698425293 4.1849775314331055 -10.0
vertex 20.26999282836914 6.017268657684326 -10.0
vertex 3.535533905029297 3.535533905029297 -10.0
endloop
endfacet
facet normal 1.3493809773373953e-15 -2.6825450853831334e-15 -1.0
outer loop
vertex 4.1849775314331055 -2.736048698425293 -10.0
vertex 4.648941516876221 -1.8404735326766968 -10.0
vertex 20.26999282836914 6.017268657684326 -10.0
endloop
endfacet
facet normal 0.0 -0.0 -1.0
outer loop
vertex 1.8404735326766968 4.648941516876221 -10.0
vertex 20.26999282836914 6.017268657684326 -10.0
vertex 2.736048698425293 4.1849775314331055 -10.0
endloop
endfacet
facet normal -2.365061890159171e-15 4.143080396443698e-15 -1.0
outer loop
vertex 3.535533905029297 -3.535533905029297 -10.0
vertex 4.1849775314331055 -2.736048698425293 -10.0
vertex 20.26999282836914 6.017268657684326 -10.0
endloop
endfacet
facet normal -2.704251151689472e-16 3.642260731434805e-15 -1.0
outer loop
vertex -7.993605777301127e-15 5.0 -10.0
vertex 20.26999282836914 6.017268657684326 -10.0
vertex 1.8404735326766968 4.648941516876221 -10.0
endloop
endfacet
facet normal 0.0 0.0 -1.0
outer loop
vertex 2.736048698425293 -4.1849775314331055 -10.0
vertex 3.535533905029297 -3.535533905029297 -10.0
vertex 20.26999282836914 6.017268657684326 -10.0
endloop
endfacet
facet normal -7.27428917251788e-17 1.250185292991579e-16 -1.0
outer loop
vertex 19.226701736450195 -8.798526763916016 -10.0
vertex 2.736048698425293 -4.1849775314331055 -10.0
vertex 20.26999282836914 6.017268657684326 -10.0
endloop
endfacet
facet normal -0.9664884805679321 0.25671008229255676 -1.2242991180317492e-13
outer loop
vertex -72.85072326660156 2.317856550216675 0.0
vertex -72.22344970703125 4.6794962882995605 0.0
vertex -72.85072326660156 2.317856550216675 -10.0
endloop
endfacet
facet normal -0.1256755143404007 0.9920713901519775 0.0
outer loop
vertex -2.6573166847229004 20.976625442504883 0.0
vertex -61.084598541259766 13.57506275177002 -10.0
vertex -61.084598541259766 13.57506275177002 0.0
endloop
endfacet
facet normal -0.1256755143404007 0.9920713901519775 0.0
outer loop
vertex -2.6573166847229004 20.976625442504883 -10.0
vertex -61.084598541259766 13.57506275177002 -10.0
vertex -2.6573166847229004 20.976625442504883 0.0
endloop
endfacet
facet normal -0.8090686798095703 0.5877141356468201 0.0
outer loop
vertex -69.63066101074219 9.04732608795166 0.0
vertex -71.1429443359375 6.965456485748291 -10.0
vertex -71.1429443359375 6.965456485748291 0.0
endloop
endfacet
facet normal -0.8090686798095703 0.5877141356468201 -1.2598679119001002e-15
outer loop
vertex -69.63066101074219 9.04732608795166 -10.0
vertex -71.1429443359375 6.965456485748291 -10.0
vertex -69.63066101074219 9.04732608795166 0.0
endloop
endfacet
facet normal -0.6847345232963562 0.7287926077842712 -1.1025258244752199e-15
outer loop
vertex -67.75535583496094 10.8092622756958 0.0
vertex -69.63066101074219 9.04732608795166 -10.0
vertex -69.63066101074219 9.04732608795166 0.0
endloop
endfacet
facet normal -0.6847345232963562 0.7287926077842712 0.0
outer loop
vertex -67.75535583496094 10.8092622756958 -10.0
vertex -69.63066101074219 9.04732608795166 -10.0
vertex -67.75535583496094 10.8092622756958 0.0
endloop
endfacet
facet normal -0.9040924906730652 0.4273368716239929 0.0
outer loop
vertex -72.22344970703125 4.6794962882995605 -10.0
vertex -71.1429443359375 6.965456485748291 0.0
vertex -71.1429443359375 6.965456485748291 -10.0
endloop
endfacet
facet normal -0.9040924906730652 0.4273368716239929 -3.512727026835859e-17
outer loop
vertex -72.22344970703125 4.6794962882995605 0.0
vertex -71.1429443359375 6.965456485748291 0.0
vertex -72.22344970703125 4.6794962882995605 -10.0
endloop
endfacet
facet normal -0.5375709533691406 0.8432185053825378 0.0
outer loop
vertex -65.62330627441406 12.168488502502441 0.0
vertex -67.75535583496094 10.8092622756958 -10.0
vertex -67.75535583496094 10.8092622756958 0.0
endloop
endfacet
facet normal -0.5375709533691406 0.8432185053825378 1.580727195163361e-16
outer loop
vertex -65.62330627441406 12.168488502502441 -10.0
vertex -67.75535583496094 10.8092622756958 -10.0
vertex -65.62330627441406 12.168488502502441 0.0
endloop
endfacet
facet normal -0.9664884805679321 0.25671008229255676 -2.2800436182913707e-17
outer loop
vertex -72.85072326660156 2.317856550216675 -10.0
vertex -72.22344970703125 4.6794962882995605 0.0
vertex -72.22344970703125 4.6794962882995605 -10.0
endloop
endfacet
facet normal -0.9822902679443359 0.1873655468225479 0.0
outer loop
vertex 5.0 0.0 -10.0
vertex 4.648941516876221 -1.8404735326766968 -10.0
vertex 5.0 0.0 0.0
endloop
endfacet
facet normal -0.3761386573314667 0.9265633821487427 -1.238376859613466e-16
outer loop
vertex -63.35922622680664 13.087593078613281 0.0
vertex -65.62330627441406 12.168488502502441 -10.0
vertex -65.62330627441406 12.168488502502441 0.0
endloop
endfacet
facet normal -0.3761386573314667 0.9265633821487427 7.349611370888187e-14
outer loop
vertex -63.35922622680664 13.087593078613281 -10.0
vertex -65.62330627441406 12.168488502502441 -10.0
vertex -63.35922622680664 13.087593078613281 0.0
endloop
endfacet
facet normal -0.9963807463645935 0.08500262349843979 1.1612920640304697e-13
outer loop
vertex -73.04846954345703 1.6756967144979703e-15 -10.0
vertex -72.85072326660156 2.317856550216675 0.0
vertex -72.85072326660156 2.317856550216675 -10.0
endloop
endfacet
facet normal -0.9963807463645935 0.08500262349843979 0.0
outer loop
vertex -73.04846954345703 1.6756967144979703e-15 0.0
vertex -72.85072326660156 2.317856550216675 0.0
vertex -73.04846954345703 1.6756967144979703e-15 -10.0
endloop
endfacet
facet normal -0.20954932272434235 0.9777981042861938 -6.983228285992876e-14
outer loop
vertex -61.084598541259766 13.57506275177002 0.0
vertex -63.35922622680664 13.087593078613281 -10.0
vertex -63.35922622680664 13.087593078613281 0.0
endloop
endfacet
facet normal -0.20954932272434235 0.9777981042861938 0.0
outer loop
vertex -61.084598541259766 13.57506275177002 -10.0
vertex -63.35922622680664 13.087593078613281 -10.0
vertex -61.084598541259766 13.57506275177002 0.0
endloop
endfacet
facet normal -0.6847345232963562 -0.7287926077842712 -1.1025258244752199e-15
outer loop
vertex -69.63066101074219 -9.04732608795166 0.0
vertex -67.75535583496094 -10.8092622756958 -10.0
vertex -67.75535583496094 -10.8092622756958 0.0
endloop
endfacet
facet normal -0.6847345232963562 -0.7287926077842712 -1.2080925200733686e-16
outer loop
vertex -69.63066101074219 -9.04732608795166 -10.0
vertex -67.75535583496094 -10.8092622756958 -10.0
vertex -69.63066101074219 -9.04732608795166 0.0
endloop
endfacet
facet normal -0.8090686798095703 -0.5877141356468201 -1.0439900112335456e-16
outer loop
vertex -71.1429443359375 -6.965456485748291 0.0
vertex -69.63066101074219 -9.04732608795166 -10.0
vertex -69.63066101074219 -9.04732608795166 0.0
endloop
endfacet
facet normal -0.8090686798095703 -0.5877141356468201 0.0
outer loop
vertex -71.1429443359375 -6.965456485748291 -10.0
vertex -69.63066101074219 -9.04732608795166 -10.0
vertex -71.1429443359375 -6.965456485748291 0.0
endloop
endfacet
facet normal -0.5375709533691406 -0.8432185053825378 -9.137199570707498e-16
outer loop
vertex -65.62330627441406 -12.168488502502441 -10.0
vertex -67.75535583496094 -10.8092622756958 0.0
vertex -67.75535583496094 -10.8092622756958 -10.0
endloop
endfacet
facet normal 0.1873655468225479 0.9822902679443359 0.0
outer loop
vertex -59.36491012573242 -5.0 -10.0
vertex -61.205387115478516 -4.648941516876221 -10.0
vertex -59.36491012573242 -5.0 0.0
endloop
endfacet
facet normal 0.9822902679443359 0.1873655468225479 -0.0
outer loop
vertex -64.01385498046875 -1.8404735326766968 0.0
vertex -64.36491394042969 -6.123031769111886e-16 -10.0
vertex -64.36491394042969 -6.123031769111886e-16 0.0
endloop
endfacet
facet normal 0.9822902679443359 0.1873655468225479 -2.892206534487428e-14
outer loop
vertex -64.01385498046875 -1.8404735326766968 -10.0
vertex -64.36491394042969 -6.123031769111886e-16 -10.0
vertex -64.01385498046875 -1.8404735326766968 0.0
endloop
endfacet
facet normal 0.8879199624061584 0.4599980413913727 1.561222837478688e-14
outer loop
vertex -63.549888610839844 -2.736048698425293 0.0
vertex -64.01385498046875 -1.8404735326766968 -10.0
vertex -64.01385498046875 -1.8404735326766968 0.0
endloop
endfacet
facet normal 0.8879199624061584 0.4599980413913727 1.4419601961646327e-15
outer loop
vertex -63.549888610839844 -2.736048698425293 -10.0
vertex -64.01385498046875 -1.8404735326766968 -10.0
vertex -63.549888610839844 -2.736048698425293 0.0
endloop
endfacet
facet normal 0.7761795520782471 0.6305118799209595 1.0385185092665278e-15
outer loop
vertex -62.90044403076172 -3.535533905029297 0.0
vertex -63.549888610839844 -2.736048698425293 -10.0
vertex -63.549888610839844 -2.736048698425293 0.0
endloop
endfacet
facet normal 0.7761795520782471 0.6305118799209595 -1.9509252476316782e-15
outer loop
vertex -62.90044403076172 -3.535533905029297 -10.0
vertex -63.549888610839844 -2.736048698425293 -10.0
vertex -62.90044403076172 -3.535533905029297 0.0
endloop
endfacet
facet normal 0.6305118799209595 0.7761795520782471 -1.481798908531081e-15
outer loop
vertex -62.10095977783203 -4.1849775314331055 0.0
vertex -62.90044403076172 -3.535533905029297 -10.0
vertex -62.90044403076172 -3.535533905029297 0.0
endloop
endfacet
facet normal 0.6305118799209595 0.7761795520782471 4.0958651388374077e-16
outer loop
vertex -62.10095977783203 -4.1849775314331055 -10.0
vertex -62.90044403076172 -3.535533905029297 -10.0
vertex -62.10095977783203 -4.1849775314331055 0.0
endloop
endfacet
facet normal 0.4599980413913727 0.8879199624061584 1.0165459452191592e-16
outer loop
vertex -61.205387115478516 -4.648941516876221 0.0
vertex -62.10095977783203 -4.1849775314331055 -10.0
vertex -62.10095977783203 -4.1849775314331055 0.0
endloop
endfacet
facet normal 0.4599980413913727 0.8879199624061584 -1.6125737016862117e-14
outer loop
vertex -61.205387115478516 -4.648941516876221 -10.0
vertex -62.10095977783203 -4.1849775314331055 -10.0
vertex -61.205387115478516 -4.648941516876221 0.0
endloop
endfacet
facet normal 0.1873655468225479 0.9822902679443359 2.876521178370173e-14
outer loop
vertex -59.36491012573242 -5.0 0.0
vertex -61.205387115478516 -4.648941516876221 -10.0
vertex -61.205387115478516 -4.648941516876221 0.0
endloop
endfacet
facet normal 0.9822902679443359 -0.1873655468225479 0.0
outer loop
vertex -64.36491394042969 -6.123031769111886e-16 -10.0
vertex -64.01385498046875 1.8404735326766968 -10.0
vertex -64.36491394042969 -6.123031769111886e-16 0.0
endloop
endfacet
facet normal -0.1873655468225479 0.9822902679443359 0.0
outer loop
vertex -57.524436950683594 -4.648941516876221 0.0
vertex -59.36491012573242 -5.0 -10.0
vertex -59.36491012573242 -5.0 0.0
endloop
endfacet
facet normal -0.1873655468225479 0.9822902679443359 -2.881540695615602e-14
outer loop
vertex -57.524436950683594 -4.648941516876221 -10.0
vertex -59.36491012573242 -5.0 -10.0
vertex -57.524436950683594 -4.648941516876221 0.0
endloop
endfacet
facet normal -0.4599980413913727 0.8879199624061584 1.5877791838475944e-14
outer loop
vertex -56.62886428833008 -4.1849775314331055 0.0
vertex -57.524436950683594 -4.648941516876221 -10.0
vertex -57.524436950683594 -4.648941516876221 0.0
endloop
endfacet
facet normal -0.4599980413913727 0.8879199624061584 -5.503664734467291e-17
outer loop
vertex -56.62886428833008 -4.1849775314331055 -10.0
vertex -57.524436950683594 -4.648941516876221 -10.0
vertex -56.62886428833008 -4.1849775314331055 0.0
endloop
endfacet
facet normal -0.6305118799209595 0.7761795520782471 2.7556395818082065e-16
outer loop
vertex -55.829376220703125 -3.535533905029297 0.0
vertex -56.62886428833008 -4.1849775314331055 -10.0
vertex -56.62886428833008 -4.1849775314331055 0.0
endloop
endfacet
facet normal -0.6305118799209595 0.7761795520782471 -6.898299320514474e-16
outer loop
vertex -55.829376220703125 -3.535533905029297 -10.0
vertex -56.62886428833008 -4.1849775314331055 -10.0
vertex -55.829376220703125 -3.535533905029297 0.0
endloop
endfacet
facet normal -0.7761795520782471 0.6305118799209595 -9.35015424155907e-16
outer loop
vertex -55.179935455322266 -2.736048698425293 0.0
vertex -55.829376220703125 -3.535533905029297 -10.0
vertex -55.829376220703125 -3.535533905029297 0.0
endloop
endfacet
facet normal -0.7761795520782471 0.6305118799209595 0.0
outer loop
vertex -55.179935455322266 -2.736048698425293 -10.0
vertex -55.829376220703125 -3.535533905029297 -10.0
vertex -55.179935455322266 -2.736048698425293 0.0
endloop
endfacet
facet normal -0.8879199624061584 0.4599980413913727 0.0
outer loop
vertex -54.71596908569336 -1.8404735326766968 0.0
vertex -55.179935455322266 -2.736048698425293 -10.0
vertex -55.179935455322266 -2.736048698425293 0.0
endloop
endfacet
facet normal -0.8879199624061584 0.4599980413913727 -1.457920732110627e-14
outer loop
vertex -54.71596908569336 -1.8404735326766968 -10.0
vertex -55.179935455322266 -2.736048698425293 -10.0
vertex -54.71596908569336 -1.8404735326766968 0.0
endloop
endfacet
facet normal -0.9822902679443359 0.1873655468225479 2.977947952793013e-14
outer loop
vertex -54.36491012573242 0.0 0.0
vertex -54.71596908569336 -1.8404735326766968 -10.0
vertex -54.71596908569336 -1.8404735326766968 0.0
endloop
endfacet
facet normal -0.1873655468225479 -0.9822902679443359 0.0
outer loop
vertex -59.36491012573242 5.0 -10.0
vertex -57.524436950683594 4.648941516876221 -10.0
vertex -59.36491012573242 5.0 0.0
endloop
endfacet
facet normal -0.9822902679443359 -0.1873655468225479 0.0
outer loop
vertex -54.71596908569336 1.8404735326766968 0.0
vertex -54.36491012573242 1.2246063538223773e-15 -10.0
vertex -54.36491012573242 1.2246063538223773e-15 0.0
endloop
endfacet
facet normal -0.9822902679443359 -0.1873655468225479 -2.8951691169237445e-14
outer loop
vertex -54.71596908569336 1.8404735326766968 -10.0
vertex -54.36491012573242 1.2246063538223773e-15 -10.0
vertex -54.71596908569336 1.8404735326766968 0.0
endloop
endfacet
facet normal -0.8879199624061584 -0.4599980413913727 1.553051510636526e-14
outer loop
vertex -55.179935455322266 2.736048698425293 0.0
vertex -54.71596908569336 1.8404735326766968 -10.0
vertex -54.71596908569336 1.8404735326766968 0.0
endloop
endfacet
facet normal -0.8879199624061584 -0.4599980413913727 0.0
outer loop
vertex -55.179935455322266 2.736048698425293 -10.0
vertex -54.71596908569336 1.8404735326766968 -10.0
vertex -55.179935455322266 2.736048698425293 0.0
endloop
endfacet
facet normal -0.7761795520782471 -0.6305118799209595 0.0
outer loop
vertex -55.829376220703125 3.535533905029297 0.0
vertex -55.179935455322266 2.736048698425293 -10.0
vertex -55.179935455322266 2.736048698425293 0.0
endloop
endfacet
facet normal -0.7761795520782471 -0.6305118799209595 4.0958651388374077e-16
outer loop
vertex -55.829376220703125 3.535533905029297 -10.0
vertex -55.179935455322266 2.736048698425293 -10.0
vertex -55.829376220703125 3.535533905029297 0.0
endloop
endfacet
facet normal -0.6305118799209595 -0.7761795520782471 2.7565916997804795e-16
outer loop
vertex -56.62886428833008 4.1849775314331055 0.0
vertex -55.829376220703125 3.535533905029297 -10.0
vertex -55.829376220703125 3.535533905029297 0.0
endloop
endfacet
facet normal -0.6305118799209595 -0.7761795520782471 -5.497081832629247e-16
outer loop
vertex -56.62886428833008 4.1849775314331055 -10.0
vertex -55.829376220703125 3.535533905029297 -10.0
vertex -56.62886428833008 4.1849775314331055 0.0
endloop
endfacet
facet normal -0.4599980413913727 -0.8879199624061584 -2.593808643279352e-16
outer loop
vertex -57.524436950683594 4.648941516876221 0.0
vertex -56.62886428833008 4.1849775314331055 -10.0
vertex -56.62886428833008 4.1849775314331055 0.0
endloop
endfacet
facet normal -0.4599980413913727 -0.8879199624061584 -1.60321754515743e-14
outer loop
vertex -57.524436950683594 4.648941516876221 -10.0
vertex -56.62886428833008 4.1849775314331055 -10.0
vertex -57.524436950683594 4.648941516876221 0.0
endloop
endfacet
facet normal -0.1873655468225479 -0.9822902679443359 2.8636608465386e-14
outer loop
vertex -59.36491012573242 5.0 0.0
vertex -57.524436950683594 4.648941516876221 -10.0
vertex -57.524436950683594 4.648941516876221 0.0
endloop
endfacet
facet normal -0.9822902679443359 0.1873655468225479 0.0
outer loop
vertex -54.36491012573242 0.0 -10.0
vertex -54.71596908569336 -1.8404735326766968 -10.0
vertex -54.36491012573242 0.0 0.0
endloop
endfacet
facet normal 0.1873655468225479 -0.9822902679443359 0.0
outer loop
vertex -61.205387115478516 4.648941516876221 0.0
vertex -59.36491012573242 5.0 -10.0
vertex -59.36491012573242 5.0 0.0
endloop
endfacet
facet normal 0.1873655468225479 -0.9822902679443359 -2.8809481113657026e-14
outer loop
vertex -61.205387115478516 4.648941516876221 -10.0
vertex -59.36491012573242 5.0 -10.0
vertex -61.205387115478516 4.648941516876221 0.0
endloop
endfacet
facet normal 0.4599980413913727 -0.8879199624061584 1.5877791838475944e-14
outer loop
vertex -62.10095977783203 4.1849775314331055 0.0
vertex -61.205387115478516 4.648941516876221 -10.0
vertex -61.205387115478516 4.648941516876221 0.0
endloop
endfacet
facet normal 0.4599980413913727 -0.8879199624061584 -6.659434441201985e-16
outer loop
vertex -62.10095977783203 4.1849775314331055 -10.0
vertex -61.205387115478516 4.648941516876221 -10.0
vertex -62.10095977783203 4.1849775314331055 0.0
endloop
endfacet
facet normal 0.6305118799209595 -0.7761795520782471 -1.0682626006049546e-15
outer loop
vertex -62.90044403076172 3.535533905029297 0.0
vertex -62.10095977783203 4.1849775314331055 -10.0
vertex -62.10095977783203 4.1849775314331055 0.0
endloop
endfacet
facet normal 0.6305118799209595 -0.7761795520782471 2.8024339169792703e-16
outer loop
vertex -62.90044403076172 3.535533905029297 -10.0
vertex -62.10095977783203 4.1849775314331055 -10.0
vertex -62.90044403076172 3.535533905029297 0.0
endloop
endfacet
facet normal 0.7761795520782471 -0.6305118799209595 2.2400283921996484e-16
outer loop
vertex -63.549888610839844 2.736048698425293 0.0
vertex -62.90044403076172 3.535533905029297 -10.0
vertex -62.90044403076172 3.535533905029297 0.0
endloop
endfacet
facet normal 0.7761795520782471 -0.6305118799209595 -3.341363658927943e-16
outer loop
vertex -63.549888610839844 2.736048698425293 -10.0
vertex -62.90044403076172 3.535533905029297 -10.0
vertex -63.549888610839844 2.736048698425293 0.0
endloop
endfacet
facet normal 0.8879199624061584 -0.4599980413913727 -2.4513620537484123e-16
outer loop
vertex -64.01385498046875 1.8404735326766968 0.0
vertex -63.549888610839844 2.736048698425293 -10.0
vertex -63.549888610839844 2.736048698425293 0.0
endloop
endfacet
facet normal 0.8879199624061584 -0.4599980413913727 -1.785939153725949e-14
outer loop
vertex -64.01385498046875 1.8404735326766968 -10.0
vertex -63.549888610839844 2.736048698425293 -10.0
vertex -64.01385498046875 1.8404735326766968 0.0
endloop
endfacet
facet normal 0.9822902679443359 -0.1873655468225479 2.6239759334540508e-14
outer loop
vertex -64.36491394042969 -6.123031769111886e-16 0.0
vertex -64.01385498046875 1.8404735326766968 -10.0
vertex -64.01385498046875 1.8404735326766968 0.0
endloop
endfacet
facet normal 0.1873655468225479 0.9822902679443359 0.0
outer loop
vertex 3.061515884555943e-16 -5.0 -10.0
vertex -1.8404735326766968 -4.648941516876221 -10.0
vertex 3.061515884555943e-16 -5.0 0.0
endloop
endfacet
facet normal 0.9822902679443359 0.1873655468225479 -0.0
outer loop
vertex -4.648941516876221 -1.8404735326766968 0.0
vertex -5.0 -6.123031769111886e-16 -10.0
vertex -5.0 -6.123031769111886e-16 0.0
endloop
endfacet
facet normal 0.9822902679443359 0.1873655468225479 -2.8945765326738454e-14
outer loop
vertex -4.648941516876221 -1.8404735326766968 -10.0
vertex -5.0 -6.123031769111886e-16 -10.0
vertex -4.648941516876221 -1.8404735326766968 0.0
endloop
endfacet
facet normal 0.8879199624061584 0.4599980413913727 1.5550943846987138e-14
outer loop
vertex -4.1849775314331055 -2.736048698425293 0.0
vertex -4.648941516876221 -1.8404735326766968 -10.0
vertex -4.648941516876221 -1.8404735326766968 0.0
endloop
endfacet
facet normal 0.8879199624061584 0.4599980413913727 0.0
outer loop
vertex -4.1849775314331055 -2.736048698425293 -10.0
vertex -4.648941516876221 -1.8404735326766968 -10.0
vertex -4.1849775314331055 -2.736048698425293 0.0
endloop
endfacet
facet normal 0.7761795520782471 0.6305118799209595 -0.0
outer loop
vertex -3.535533905029297 -3.535533905029297 0.0
vertex -4.1849775314331055 -2.736048698425293 -10.0
vertex -4.1849775314331055 -2.736048698425293 0.0
endloop
endfacet
facet normal 0.7761795520782471 0.6305118799209595 1.0778592688303866e-17
outer loop
vertex -3.535533905029297 -3.535533905029297 -10.0
vertex -4.1849775314331055 -2.736048698425293 -10.0
vertex -3.535533905029297 -3.535533905029297 0.0
endloop
endfacet
facet normal 0.6305118799209595 0.7761795520782471 -6.46894406018472e-18
outer loop
vertex -2.736048698425293 -4.1849775314331055 0.0
vertex -3.535533905029297 -3.535533905029297 -10.0
vertex -3.535533905029297 -3.535533905029297 0.0
endloop
endfacet
facet normal 0.6305118799209595 0.7761795520782471 0.0
outer loop
vertex -2.736048698425293 -4.1849775314331055 -10.0
vertex -3.535533905029297 -3.535533905029297 -10.0
vertex -2.736048698425293 -4.1849775314331055 0.0
endloop
endfacet
facet normal 0.4599980413913727 0.8879199624061584 -0.0
outer loop
vertex -1.8404735326766968 -4.648941516876221 0.0
vertex -2.736048698425293 -4.1849775314331055 -10.0
vertex -2.736048698425293 -4.1849775314331055 0.0
endloop
endfacet
facet normal 0.4599980413913727 0.8879199624061584 -1.5569868257094693e-14
outer loop
vertex -1.8404735326766968 -4.648941516876221 -10.0
vertex -2.736048698425293 -4.1849775314331055 -10.0
vertex -1.8404735326766968 -4.648941516876221 0.0
endloop
endfacet
facet normal 0.1873655468225479 0.9822902679443359 2.871589752551258e-14
outer loop
vertex 3.061515884555943e-16 -5.0 0.0
vertex -1.8404735326766968 -4.648941516876221 -10.0
vertex -1.8404735326766968 -4.648941516876221 0.0
endloop
endfacet
facet normal 0.9822902679443359 -0.1873655468225479 0.0
outer loop
vertex -5.0 -6.123031769111886e-16 -10.0
vertex -4.648941516876221 1.8404735326766968 -10.0
vertex -5.0 -6.123031769111886e-16 0.0
endloop
endfacet
facet normal -0.1873655468225479 0.9822902679443359 0.0
outer loop
vertex 1.8404735326766968 -4.648941516876221 0.0
vertex 3.0616169991140216e-16 -5.0 -10.0
vertex 3.0616169991140216e-16 -5.0 0.0
endloop
endfacet
facet normal -0.1873655468225479 0.9822902679443359 -2.883910693802019e-14
outer loop
vertex 1.8404735326766968 -4.648941516876221 -10.0
vertex 3.0616169991140216e-16 -5.0 -10.0
vertex 1.8404735326766968 -4.648941516876221 0.0
endloop
endfacet
facet normal -0.4599980413913727 0.8879199624061584 1.567066348375206e-14
outer loop
vertex 2.736048698425293 -4.1849775314331055 0.0
vertex 1.8404735326766968 -4.648941516876221 -10.0
vertex 1.8404735326766968 -4.648941516876221 0.0
endloop
endfacet
facet normal -0.4599980413913727 0.8879199624061584 0.0
outer loop
vertex 2.736048698425293 -4.1849775314331055 -10.0
vertex 1.8404735326766968 -4.648941516876221 -10.0
vertex 2.736048698425293 -4.1849775314331055 0.0
endloop
endfacet
facet normal -0.6305118799209595 0.7761795520782471 0.0
outer loop
vertex 3.535533905029297 -3.535533905029297 0.0
vertex 2.736048698425293 -4.1849775314331055 -10.0
vertex 2.736048698425293 -4.1849775314331055 0.0
endloop
endfacet
facet normal -0.6305118799209595 0.7761795520782471 0.0
outer loop
vertex 3.535533905029297 -3.535533905029297 -10.0
vertex 2.736048698425293 -4.1849775314331055 -10.0
vertex 3.535533905029297 -3.535533905029297 0.0
endloop
endfacet
facet normal -0.7761795520782471 0.6305118799209595 0.0
outer loop
vertex 4.1849775314331055 -2.736048698425293 0.0
vertex 3.535533905029297 -3.535533905029297 -10.0
vertex 3.535533905029297 -3.535533905029297 0.0
endloop
endfacet
facet normal -0.7761795520782471 0.6305118799209595 0.0
outer loop
vertex 4.1849775314331055 -2.736048698425293 -10.0
vertex 3.535533905029297 -3.535533905029297 -10.0
vertex 4.1849775314331055 -2.736048698425293 0.0
endloop
endfacet
facet normal -0.8879199624061584 0.4599980413913727 0.0
outer loop
vertex 4.648941516876221 -1.8404735326766968 0.0
vertex 4.1849775314331055 -2.736048698425293 -10.0
vertex 4.1849775314331055 -2.736048698425293 0.0
endloop
endfacet
facet normal -0.8879199624061584 0.4599980413913727 -1.5580874603211316e-14
outer loop
vertex 4.648941516876221 -1.8404735326766968 -10.0
vertex 4.1849775314331055 -2.736048698425293 -10.0
vertex 4.648941516876221 -1.8404735326766968 0.0
endloop
endfacet
facet normal -0.9822902679443359 0.1873655468225479 2.871173689967567e-14
outer loop
vertex 5.0 0.0 0.0
vertex 4.648941516876221 -1.8404735326766968 -10.0
vertex 4.648941516876221 -1.8404735326766968 0.0
endloop
endfacet
facet normal -0.1873655468225479 -0.9822902679443359 0.0
outer loop
vertex -9.18454765366783e-16 5.0 -10.0
vertex 1.8404735326766968 4.648941516876221 -10.0
vertex -9.18454765366783e-16 5.0 0.0
endloop
endfacet
facet normal -0.9822902679443359 -0.1873655468225479 0.0
outer loop
vertex 4.648941516876221 1.8404735326766968 0.0
vertex 5.0 1.2246063538223773e-15 -10.0
vertex 5.0 1.2246063538223773e-15 0.0
endloop
endfacet
facet normal -0.9822902679443359 -0.1873655468225479 -2.8951691169237445e-14
outer loop
vertex 4.648941516876221 1.8404735326766968 -10.0
vertex 5.0 1.2246063538223773e-15 -10.0
vertex 4.648941516876221 1.8404735326766968 0.0
endloop
endfacet
facet normal -0.8879199624061584 -0.4599980413913727 1.5540730323709145e-14
outer loop
vertex 4.1849775314331055 2.736048698425293 0.0
vertex 4.648941516876221 1.8404735326766968 -10.0
vertex 4.648941516876221 1.8404735326766968 0.0
endloop
endfacet
facet normal -0.8879199624061584 -0.4599980413913727 0.0
outer loop
vertex 4.1849775314331055 2.736048698425293 -10.0
vertex 4.648941516876221 1.8404735326766968 -10.0
vertex 4.1849775314331055 2.736048698425293 0.0
endloop
endfacet
facet normal -0.7761795520782471 -0.6305118799209595 0.0
outer loop
vertex 3.535533905029297 3.535533905029297 0.0
vertex 4.1849775314331055 2.736048698425293 -10.0
vertex 4.1849775314331055 2.736048698425293 0.0
endloop
endfacet
facet normal -0.7761795520782471 -0.6305118799209595 -5.389296095997749e-17
outer loop
vertex 3.535533905029297 3.535533905029297 -10.0
vertex 4.1849775314331055 2.736048698425293 -10.0
vertex 3.535533905029297 3.535533905029297 0.0
endloop
endfacet
facet normal -0.6305118799209595 -0.7761795520782471 -6.893859544381881e-17
outer loop
vertex 2.736048698425293 4.1849775314331055 0.0
vertex 3.535533905029297 3.535533905029297 -10.0
vertex 3.535533905029297 3.535533905029297 0.0
endloop
endfacet
facet normal -0.6305118799209595 -0.7761795520782471 0.0
outer loop
vertex 2.736048698425293 4.1849775314331055 -10.0
vertex 3.535533905029297 3.535533905029297 -10.0
vertex 2.736048698425293 4.1849775314331055 0.0
endloop
endfacet
facet normal -0.4599980413913727 -0.8879199624061584 0.0
outer loop
vertex 1.8404735326766968 4.648941516876221 0.0
vertex 2.736048698425293 4.1849775314331055 -10.0
vertex 2.736048698425293 4.1849775314331055 0.0
endloop
endfacet
facet normal -0.4599980413913727 -0.8879199624061584 -1.5575370583120057e-14
outer loop
vertex 1.8404735326766968 4.648941516876221 -10.0
vertex 2.736048698425293 4.1849775314331055 -10.0
vertex 1.8404735326766968 4.648941516876221 0.0
endloop
endfacet
facet normal -0.1873655468225479 -0.9822902679443359 2.871173689967567e-14
outer loop
vertex -9.18454765366783e-16 5.0 0.0
vertex 1.8404735326766968 4.648941516876221 -10.0
vertex 1.8404735326766968 4.648941516876221 0.0
endloop
endfacet
facet normal -6.994620730902681e-17 1.3501498714952654e-16 -1.0
outer loop
vertex 1.8404735326766968 -4.648941516876221 -10.0
vertex 2.736048698425293 -4.1849775314331055 -10.0
vertex 19.226701736450195 -8.798526763916016 -10.0
endloop
endfacet
facet normal 0.1873655468225479 -0.9822902679443359 0.0
outer loop
vertex -1.8404735326766968 4.648941516876221 0.0
vertex -9.18454765366783e-16 5.0 -10.0
vertex -9.18454765366783e-16 5.0 0.0
endloop
endfacet
facet normal 0.1873655468225479 -0.9822902679443359 -2.902279789109355e-14
outer loop
vertex -1.8404735326766968 4.648941516876221 -10.0
vertex -9.18454765366783e-16 5.0 -10.0
vertex -1.8404735326766968 4.648941516876221 0.0
endloop
endfacet
facet normal 0.4599980413913727 -0.8879199624061584 1.5492508738021958e-14
outer loop
vertex -2.736048698425293 4.1849775314331055 0.0
vertex -1.8404735326766968 4.648941516876221 -10.0
vertex -1.8404735326766968 4.648941516876221 0.0
endloop
endfacet
facet normal 0.4599980413913727 -0.8879199624061584 0.0
outer loop
vertex -2.736048698425293 4.1849775314331055 -10.0
vertex -1.8404735326766968 4.648941516876221 -10.0
vertex -2.736048698425293 4.1849775314331055 0.0
endloop
endfacet
facet normal 0.6305118799209595 -0.7761795520782471 0.0
outer loop
vertex -3.535533905029297 3.535533905029297 0.0
vertex -2.736048698425293 4.1849775314331055 -10.0
vertex -2.736048698425293 4.1849775314331055 0.0
endloop
endfacet
facet normal 0.6305118799209595 -0.7761795520782471 -5.389296095997749e-17
outer loop
vertex -3.535533905029297 3.535533905029297 -10.0
vertex -2.736048698425293 4.1849775314331055 -10.0
vertex -3.535533905029297 3.535533905029297 0.0
endloop
endfacet
facet normal 0.7761795520782471 -0.6305118799209595 -6.893859544381881e-17
outer loop
vertex -4.1849775314331055 2.736048698425293 0.0
vertex -3.535533905029297 3.535533905029297 -10.0
vertex -3.535533905029297 3.535533905029297 0.0
endloop
endfacet
facet normal 0.7761795520782471 -0.6305118799209595 0.0
outer loop
vertex -4.1849775314331055 2.736048698425293 -10.0
vertex -3.535533905029297 3.535533905029297 -10.0
vertex -4.1849775314331055 2.736048698425293 0.0
endloop
endfacet
facet normal 0.8879199624061584 -0.4599980413913727 0.0
outer loop
vertex -4.648941516876221 1.8404735326766968 0.0
vertex -4.1849775314331055 2.736048698425293 -10.0
vertex -4.1849775314331055 2.736048698425293 0.0
endloop
endfacet
facet normal 0.8879199624061584 -0.4599980413913727 -1.5575370583120057e-14
outer loop
vertex -4.648941516876221 1.8404735326766968 -10.0
vertex -4.1849775314331055 2.736048698425293 -10.0
vertex -4.648941516876221 1.8404735326766968 0.0
endloop
endfacet
facet normal 0.9822902679443359 -0.1873655468225479 2.871173689967567e-14
outer loop
vertex -5.0 -6.123031769111886e-16 0.0
vertex -4.648941516876221 1.8404735326766968 -10.0
vertex -4.648941516876221 1.8404735326766968 0.0
endloop
endfacet
facet normal 0.0 0.0 1.0
outer loop
vertex -54.36491012573242 3.9968028886505635e-15 0.0
vertex -54.71596908569336 -1.8404735326766968 0.0
vertex -4.648941516876221 -1.8404735326766968 0.0
endloop
endfacet
facet normal -0.0 0.0 1.0
outer loop
vertex 3.552713678800501e-15 5.0 0.0
vertex 1.8404735326766968 4.648941516876221 0.0
vertex 20.26999282836914 6.017268657684326 0.0
endloop
endfacet
facet normal 0.0 0.0 1.0
outer loop
vertex -57.524436950683594 -4.648941516876221 0.0
vertex -59.36491012573242 -5.0 0.0
vertex 1.7763568394002505e-15 -5.0 0.0
endloop
endfacet
facet normal 0.0 0.0 1.0
outer loop
vertex -1.8404735326766968 -4.648941516876221 0.0
vertex -57.524436950683594 -4.648941516876221 0.0
vertex 1.7763568394002505e-15 -5.0 0.0
endloop
endfacet
facet normal -0.0 0.0 1.0
outer loop
vertex -56.62886428833008 -4.1849775314331055 0.0
vertex -57.524436950683594 -4.648941516876221 0.0
vertex -1.8404735326766968 -4.648941516876221 0.0
endloop
endfacet
facet normal 0.0 0.0 1.0
outer loop
vertex -2.736048698425293 -4.1849775314331055 0.0
vertex -56.62886428833008 -4.1849775314331055 0.0
vertex -1.8404735326766968 -4.648941516876221 0.0
endloop
endfacet
facet normal 0.0 0.0 1.0
outer loop
vertex -55.829376220703125 -3.535533905029297 0.0
vertex -56.62886428833008 -4.1849775314331055 0.0
vertex -2.736048698425293 -4.1849775314331055 0.0
endloop
endfacet
facet normal 0.0 0.0 1.0
outer loop
vertex -3.535533905029297 -3.535533905029297 0.0
vertex -55.829376220703125 -3.535533905029297 0.0
vertex -2.736048698425293 -4.1849775314331055 0.0
endloop
endfacet
facet normal 0.0 0.0 1.0
outer loop
vertex -55.179935455322266 -2.736048698425293 0.0
vertex -55.829376220703125 -3.535533905029297 0.0
vertex -3.535533905029297 -3.535533905029297 0.0
endloop
endfacet
facet normal 0.0 0.0 1.0
outer loop
vertex -4.1849775314331055 -2.736048698425293 0.0
vertex -55.179935455322266 -2.736048698425293 0.0
vertex -3.535533905029297 -3.535533905029297 0.0
endloop
endfacet
facet normal 0.0 0.0 1.0
outer loop
vertex -54.71596908569336 -1.8404735326766968 0.0
vertex -55.179935455322266 -2.736048698425293 0.0
vertex -4.1849775314331055 -2.736048698425293 0.0
endloop
endfacet
facet normal 0.0 0.0 1.0
outer loop
vertex -4.648941516876221 -1.8404735326766968 0.0
vertex -54.71596908569336 -1.8404735326766968 0.0
vertex -4.1849775314331055 -2.736048698425293 0.0
endloop
endfacet
facet normal -0.0 0.0 1.0
outer loop
vertex 1.8404735326766968 4.648941516876221 0.0
vertex 2.736048698425293 4.1849775314331055 0.0
vertex 20.26999282836914 6.017268657684326 0.0
endloop
endfacet
facet normal 0.0 0.0 1.0
outer loop
vertex -5.0 0.0 0.0
vertex -54.36491012573242 3.9968028886505635e-15 0.0
vertex -4.648941516876221 -1.8404735326766968 0.0
endloop
endfacet
facet normal 0.0 0.0 1.0
outer loop
vertex -54.71596908569336 1.8404735326766968 0.0
vertex -54.36491012573242 3.9968028886505635e-15 0.0
vertex -5.0 0.0 0.0
endloop
endfacet
facet normal 0.0 0.0 1.0
outer loop
vertex -4.648941516876221 1.8404735326766968 0.0
vertex -54.71596908569336 1.8404735326766968 0.0
vertex -5.0 0.0 0.0
endloop
endfacet
facet normal 0.0 0.0 1.0
outer loop
vertex -55.179935455322266 2.736048698425293 0.0
vertex -54.71596908569336 1.8404735326766968 0.0
vertex -4.648941516876221 1.8404735326766968 0.0
endloop
endfacet
facet normal 0.0 0.0 1.0
outer loop
vertex -4.1849775314331055 2.736048698425293 0.0
vertex -55.179935455322266 2.736048698425293 0.0
vertex -4.648941516876221 1.8404735326766968 0.0
endloop
endfacet
facet normal 0.0 0.0 1.0
outer loop
vertex -55.829376220703125 3.535533905029297 0.0
vertex -55.179935455322266 2.736048698425293 0.0
vertex -4.1849775314331055 2.736048698425293 0.0
endloop
endfacet
facet normal 0.0 0.0 1.0
outer loop
vertex -3.535533905029297 3.535533905029297 0.0
vertex -55.829376220703125 3.535533905029297 0.0
vertex -4.1849775314331055 2.736048698425293 0.0
endloop
endfacet
facet normal -0.0 0.0 1.0
outer loop
vertex -56.62886428833008 4.1849775314331055 0.0
vertex -55.829376220703125 3.535533905029297 0.0
vertex -3.535533905029297 3.535533905029297 0.0
endloop
endfacet
facet normal 0.0 0.0 1.0
outer loop
vertex -2.736048698425293 4.1849775314331055 0.0
vertex -56.62886428833008 4.1849775314331055 0.0
vertex -3.535533905029297 3.535533905029297 0.0
endloop
endfacet
facet normal -0.0 0.0 1.0
outer loop
vertex -57.524436950683594 4.648941516876221 0.0
vertex -56.62886428833008 4.1849775314331055 0.0
vertex -2.736048698425293 4.1849775314331055 0.0
endloop
endfacet
facet normal 0.0 0.0 1.0
outer loop
vertex -1.8404735326766968 4.648941516876221 0.0
vertex -57.524436950683594 4.648941516876221 0.0
vertex -2.736048698425293 4.1849775314331055 0.0
endloop
endfacet
facet normal 0.0 0.0 1.0
outer loop
vertex 1.7763568394002505e-15 -5.0 0.0
vertex -59.36491012573242 -5.0 0.0
vertex 3.181147575378418 -20.90359878540039 0.0
endloop
endfacet
facet normal 0.0 -0.0 1.0
outer loop
vertex -71.1429443359375 -6.965456485748291 0.0
vertex -63.549888610839844 -2.736048698425293 0.0
vertex -71.1429443359375 6.965456485748291 0.0
endloop
endfacet
facet normal 0.0 0.0 1.0
outer loop
vertex -62.90044403076172 -3.535533905029297 0.0
vertex -63.549888610839844 -2.736048698425293 0.0
vertex -71.1429443359375 -6.965456485748291 0.0
endloop
endfacet
facet normal 0.0 0.0 1.0
outer loop
vertex -61.205387115478516 4.648941516876221 0.0
vertex -71.1429443359375 6.965456485748291 0.0
vertex -62.10095977783203 4.1849775314331055 0.0
endloop
endfacet
facet normal 0.0 0.0 1.0
outer loop
vertex -62.10095977783203 -4.1849775314331055 0.0
vertex -62.90044403076172 -3.535533905029297 0.0
vertex -71.1429443359375 -6.965456485748291 0.0
endloop
endfacet
facet normal 0.0 0.0 1.0
outer loop
vertex -59.36491012573242 5.0 0.0
vertex -71.1429443359375 6.965456485748291 0.0
vertex -61.205387115478516 4.648941516876221 0.0
endloop
endfacet
facet normal 0.0 0.0 1.0
outer loop
vertex -61.205387115478516 -4.648941516876221 0.0
vertex -62.10095977783203 -4.1849775314331055 0.0
vertex -71.1429443359375 -6.965456485748291 0.0
endloop
endfacet
facet normal 0.0 0.0 1.0
outer loop
vertex -61.084598541259766 -13.57506275177002 0.0
vertex -61.205387115478516 -4.648941516876221 0.0
vertex -71.1429443359375 -6.965456485748291 0.0
endloop
endfacet
facet normal 0.0 0.0 1.0
outer loop
vertex -2.6573166847229004 -20.976625442504883 0.0
vertex -61.205387115478516 -4.648941516876221 0.0
vertex -61.084598541259766 -13.57506275177002 0.0
endloop
endfacet
facet normal 0.0 0.0 1.0
outer loop
vertex 0.22032371163368225 -21.14312171936035 0.0
vertex -61.205387115478516 -4.648941516876221 0.0
vertex -2.6573166847229004 -20.976625442504883 0.0
endloop
endfacet
facet normal 0.0 0.0 1.0
outer loop
vertex -59.36491012573242 -5.0 0.0
vertex -61.205387115478516 -4.648941516876221 0.0
vertex 0.22032371163368225 -21.14312171936035 0.0
endloop
endfacet
facet normal 0.0 0.0 1.0
outer loop
vertex 3.181147575378418 -20.90359878540039 0.0
vertex -59.36491012573242 -5.0 0.0
vertex 0.22032371163368225 -21.14312171936035 0.0
endloop
endfacet
facet normal -0.0 0.0 1.0
outer loop
vertex -59.36491012573242 5.0 0.0
vertex -57.524436950683594 4.648941516876221 0.0
vertex -1.8404735326766968 4.648941516876221 0.0
endloop
endfacet
facet normal 0.0 0.0 1.0
outer loop
vertex 1.8404735326766968 -4.648941516876221 0.0
vertex 1.7763568394002505e-15 -5.0 0.0
vertex 3.181147575378418 -20.90359878540039 0.0
endloop
endfacet
facet normal 0.0 0.0 1.0
outer loop
vertex 2.736048698425293 -4.1849775314331055 0.0
vertex 1.8404735326766968 -4.648941516876221 0.0
vertex 3.181147575378418 -20.90359878540039 0.0
endloop
endfacet
facet normal 0.0 0.0 1.0
outer loop
vertex 20.26999282836914 6.017268657684326 0.0
vertex 2.736048698425293 -4.1849775314331055 0.0
vertex 3.181147575378418 -20.90359878540039 0.0
endloop
endfacet
facet normal -0.0 0.0 1.0
outer loop
vertex 3.535533905029297 -3.535533905029297 0.0
vertex 2.736048698425293 -4.1849775314331055 0.0
vertex 20.26999282836914 6.017268657684326 0.0
endloop
endfacet
facet normal -0.0 0.0 1.0
outer loop
vertex 4.1849775314331055 -2.736048698425293 0.0
vertex 3.535533905029297 -3.535533905029297 0.0
vertex 20.26999282836914 6.017268657684326 0.0
endloop
endfacet
facet normal -0.0 0.0 1.0
outer loop
vertex 4.648941516876221 -1.8404735326766968 0.0
vertex 4.1849775314331055 -2.736048698425293 0.0
vertex 20.26999282836914 6.017268657684326 0.0
endloop
endfacet
facet normal -0.0 0.0 1.0
outer loop
vertex 5.0 3.552713678800501e-15 0.0
vertex 4.648941516876221 -1.8404735326766968 0.0
vertex 20.26999282836914 6.017268657684326 0.0
endloop
endfacet
facet normal -0.0 0.0 1.0
outer loop
vertex 4.648941516876221 1.8404735326766968 0.0
vertex 5.0 3.552713678800501e-15 0.0
vertex 20.26999282836914 6.017268657684326 0.0
endloop
endfacet
facet normal -0.0 0.0 1.0
outer loop
vertex 4.1849775314331055 2.736048698425293 0.0
vertex 4.648941516876221 1.8404735326766968 0.0
vertex 20.26999282836914 6.017268657684326 0.0
endloop
endfacet
facet normal -0.0 0.0 1.0
outer loop
vertex 3.535533905029297 3.535533905029297 0.0
vertex 4.1849775314331055 2.736048698425293 0.0
vertex 20.26999282836914 6.017268657684326 0.0
endloop
endfacet
facet normal -0.0 0.0 1.0
outer loop
vertex 2.736048698425293 4.1849775314331055 0.0
vertex 3.535533905029297 3.535533905029297 0.0
vertex 20.26999282836914 6.017268657684326 0.0
endloop
endfacet
facet normal 0.0 0.0 1.0
outer loop
vertex 3.181147575378418 -20.90359878540039 0.0
vertex 13.530349731445312 -8.5888032913208 0.0
vertex 20.26999282836914 6.017268657684326 0.0
endloop
endfacet
facet normal -0.0 -0.0 1.0
outer loop
vertex -72.85072326660156 2.317856550216675 0.0
vertex -72.22344970703125 -9.71445146547012e-17 0.0
vertex -72.22344970703125 4.6794962882995605 0.0
endloop
endfacet
facet normal -0.0 -0.0 1.0
outer loop
vertex -73.04846954345703 0.0 0.0
vertex -72.22344970703125 -9.71445146547012e-17 0.0
vertex -72.85072326660156 2.317856550216675 0.0
endloop
endfacet
facet normal 0.0 -0.0 1.0
outer loop
vertex -72.85072326660156 -2.317856550216675 0.0
vertex -72.22344970703125 -9.71445146547012e-17 0.0
vertex -73.04846954345703 0.0 0.0
endloop
endfacet
facet normal 0.0 -0.0 1.0
outer loop
vertex -72.22344970703125 -4.6794962882995605 0.0
vertex -72.22344970703125 -9.71445146547012e-17 0.0
vertex -72.85072326660156 -2.317856550216675 0.0
endloop
endfacet
facet normal 0.0 0.0 1.0
outer loop
vertex -71.1429443359375 -6.965456485748291 0.0
vertex -72.22344970703125 -9.71445146547012e-17 0.0
vertex -72.22344970703125 -4.6794962882995605 0.0
endloop
endfacet
facet normal 0.0 0.0 1.0
outer loop
vertex -71.1429443359375 -6.965456485748291 0.0
vertex -66.49494171142578 -11.067459106445312 0.0
vertex -61.084598541259766 -13.57506275177002 0.0
endloop
endfacet
facet normal -0.0 -0.0 1.0
outer loop
vertex -69.63066101074219 -9.04732608795166 0.0
vertex -66.49494171142578 -11.067459106445312 0.0
vertex -71.1429443359375 -6.965456485748291 0.0
endloop
endfacet
facet normal -0.0 -0.0 1.0
outer loop
vertex -67.75535583496094 -10.8092622756958 0.0
vertex -66.49494171142578 -11.067459106445312 0.0
vertex -69.63066101074219 -9.04732608795166 0.0
endloop
endfacet
facet normal 0.0 0.0 1.0
outer loop
vertex -65.62330627441406 -12.168488502502441 0.0
vertex -66.49494171142578 -11.067459106445312 0.0
vertex -67.75535583496094 -10.8092622756958 0.0
endloop
endfacet
facet normal 0.0 0.0 1.0
outer loop
vertex -63.35922622680664 -13.087593078613281 0.0
vertex -66.49494171142578 -11.067459106445312 0.0
vertex -65.62330627441406 -12.168488502502441 0.0
endloop
endfacet
facet normal 0.0 0.0 1.0
outer loop
vertex -61.084598541259766 -13.57506275177002 0.0
vertex -66.49494171142578 -11.067459106445312 0.0
vertex -63.35922622680664 -13.087593078613281 0.0
endloop
endfacet
facet normal -0.0 0.0 1.0
outer loop
vertex -72.22344970703125 4.6794962882995605 0.0
vertex -72.22344970703125 -9.71445146547012e-17 0.0
vertex -71.1429443359375 6.965456485748291 0.0
endloop
endfacet
facet normal 0.0 -0.0 1.0
outer loop
vertex 6.13844108581543 -20.233627319335938 0.0
vertex 13.530349731445312 -8.5888032913208 0.0
vertex 3.181147575378418 -20.90359878540039 0.0
endloop
endfacet
facet normal 0.0 -0.0 1.0
outer loop
vertex 8.998391151428223 -19.133975982666016 0.0
vertex 13.530349731445312 -8.5888032913208 0.0
vertex 6.13844108581543 -20.233627319335938 0.0
endloop
endfacet
facet normal 0.0 -0.0 1.0
outer loop
vertex 11.669378280639648 -17.632518768310547 0.0
vertex 13.530349731445312 -8.5888032913208 0.0
vertex 8.998391151428223 -19.133975982666016 0.0
endloop
endfacet
facet normal 0.0 0.0 1.0
outer loop
vertex 14.071500778198242 -15.7820463180542 0.0
vertex 13.530349731445312 -8.5888032913208 0.0
vertex 11.669378280639648 -17.632518768310547 0.0
endloop
endfacet
facet normal 0.0 0.0 1.0
outer loop
vertex 16.144336700439453 -13.654322624206543 0.0
vertex 13.530349731445312 -8.5888032913208 0.0
vertex 14.071500778198242 -15.7820463180542 0.0
endloop
endfacet
facet normal 0.0 0.0 1.0
outer loop
vertex 17.851394653320312 -11.331719398498535 0.0
vertex 13.530349731445312 -8.5888032913208 0.0
vertex 16.144336700439453 -13.654322624206543 0.0
endloop
endfacet
facet normal 0.0 0.0 1.0
outer loop
vertex 19.226701736450195 -8.798526763916016 0.0
vertex 13.530349731445312 -8.5888032913208 0.0
vertex 17.851394653320312 -11.331719398498535 0.0
endloop
endfacet
facet normal 0.0 0.0 1.0
outer loop
vertex 20.26999282836914 -6.017268657684326 0.0
vertex 13.530349731445312 -8.5888032913208 0.0
vertex 19.226701736450195 -8.798526763916016 0.0
endloop
endfacet
facet normal -0.0 0.0 1.0
outer loop
vertex 20.922258377075195 -3.0560197830200195 0.0
vertex 13.530349731445312 -8.5888032913208 0.0
vertex 20.26999282836914 -6.017268657684326 0.0
endloop
endfacet
facet normal -0.0 0.0 1.0
outer loop
vertex 21.144269943237305 -3.552713678800501e-15 0.0
vertex 13.530349731445312 -8.5888032913208 0.0
vertex 20.922258377075195 -3.0560197830200195 0.0
endloop
endfacet
facet normal -0.0 0.0 1.0
outer loop
vertex 20.922258377075195 3.0560197830200195 0.0
vertex 13.530349731445312 -8.5888032913208 0.0
vertex 21.144269943237305 -3.552713678800501e-15 0.0
endloop
endfacet
facet normal 0.0 0.0 1.0
outer loop
vertex 8.998391151428223 19.133975982666016 0.0
vertex 7.1459126472473145 18.462583541870117 0.0
vertex 11.669378280639648 17.632518768310547 0.0
endloop
endfacet
facet normal 0.0 0.0 1.0
outer loop
vertex 3.552713678800501e-15 5.0 0.0
vertex -59.36491012573242 5.0 0.0
vertex -1.8404735326766968 4.648941516876221 0.0
endloop
endfacet
facet normal -0.0 0.0 1.0
outer loop
vertex -71.1429443359375 6.965456485748291 0.0
vertex -59.36491012573242 5.0 0.0
vertex 3.552713678800501e-15 5.0 0.0
endloop
endfacet
facet normal 0.0 0.0 1.0
outer loop
vertex 20.26999282836914 6.017268657684326 0.0
vertex -71.1429443359375 6.965456485748291 0.0
vertex 3.552713678800501e-15 5.0 0.0
endloop
endfacet
facet normal 0.0 0.0 1.0
outer loop
vertex -61.084598541259766 13.57506275177002 0.0
vertex -71.1429443359375 6.965456485748291 0.0
vertex 20.26999282836914 6.017268657684326 0.0
endloop
endfacet
facet normal 0.0 0.0 1.0
outer loop
vertex 19.226701736450195 8.798526763916016 0.0
vertex -61.084598541259766 13.57506275177002 0.0
vertex 20.26999282836914 6.017268657684326 0.0
endloop
endfacet
facet normal 0.0 0.0 1.0
outer loop
vertex -2.6573166847229004 20.976625442504883 0.0
vertex -61.084598541259766 13.57506275177002 0.0
vertex 19.226701736450195 8.798526763916016 0.0
endloop
endfacet
facet normal 0.0 0.0 1.0
outer loop
vertex 17.851394653320312 11.331719398498535 0.0
vertex -2.6573166847229004 20.976625442504883 0.0
vertex 19.226701736450195 8.798526763916016 0.0
endloop
endfacet
facet normal 0.0 0.0 1.0
outer loop
vertex 16.144336700439453 13.654322624206543 0.0
vertex -2.6573166847229004 20.976625442504883 0.0
vertex 17.851394653320312 11.331719398498535 0.0
endloop
endfacet
facet normal 0.0 0.0 1.0
outer loop
vertex 16.144336700439453 13.654322624206543 0.0
vertex 7.1459126472473145 18.462583541870117 0.0
vertex -2.6573166847229004 20.976625442504883 0.0
endloop
endfacet
facet normal 0.0 0.0 1.0
outer loop
vertex 14.071500778198242 15.7820463180542 0.0
vertex 7.1459126472473145 18.462583541870117 0.0
vertex 16.144336700439453 13.654322624206543 0.0
endloop
endfacet
facet normal 0.0 0.0 1.0
outer loop
vertex 11.669378280639648 17.632518768310547 0.0
vertex 7.1459126472473145 18.462583541870117 0.0
vertex 14.071500778198242 15.7820463180542 0.0
endloop
endfacet
facet normal 0.0 0.0 1.0
outer loop
vertex -63.549888610839844 -2.736048698425293 0.0
vertex -64.01385498046875 -1.8404735326766968 0.0
vertex -71.1429443359375 6.965456485748291 0.0
endloop
endfacet
facet normal -0.0 0.0 1.0
outer loop
vertex 6.13844108581543 20.233627319335938 0.0
vertex 7.1459126472473145 18.462583541870117 0.0
vertex 8.998391151428223 19.133975982666016 0.0
endloop
endfacet
facet normal -0.0 -0.0 1.0
outer loop
vertex 3.181147575378418 20.90359878540039 0.0
vertex 7.1459126472473145 18.462583541870117 0.0
vertex 6.13844108581543 20.233627319335938 0.0
endloop
endfacet
facet normal -0.0 -0.0 1.0
outer loop
vertex 0.22032371163368225 21.14312171936035 0.0
vertex 7.1459126472473145 18.462583541870117 0.0
vertex 3.181147575378418 20.90359878540039 0.0
endloop
endfacet
facet normal -0.0 -0.0 1.0
outer loop
vertex -2.6573166847229004 20.976625442504883 0.0
vertex 7.1459126472473145 18.462583541870117 0.0
vertex 0.22032371163368225 21.14312171936035 0.0
endloop
endfacet
facet normal 0.0 0.0 1.0
outer loop
vertex -61.084598541259766 13.57506275177002 0.0
vertex -66.49494171142578 11.067459106445312 0.0
vertex -71.1429443359375 6.965456485748291 0.0
endloop
endfacet
facet normal -0.0 0.0 1.0
outer loop
vertex -63.35922622680664 13.087593078613281 0.0
vertex -66.49494171142578 11.067459106445312 0.0
vertex -61.084598541259766 13.57506275177002 0.0
endloop
endfacet
facet normal -0.0 0.0 1.0
outer loop
vertex -65.62330627441406 12.168488502502441 0.0
vertex -66.49494171142578 11.067459106445312 0.0
vertex -63.35922622680664 13.087593078613281 0.0
endloop
endfacet
facet normal 0.0 0.0 1.0
outer loop
vertex -67.75535583496094 10.8092622756958 0.0
vertex -66.49494171142578 11.067459106445312 0.0
vertex -65.62330627441406 12.168488502502441 0.0
endloop
endfacet
facet normal 0.0 -0.0 1.0
outer loop
vertex -69.63066101074219 9.04732608795166 0.0
vertex -66.49494171142578 11.067459106445312 0.0
vertex -67.75535583496094 10.8092622756958 0.0
endloop
endfacet
facet normal 0.0 -0.0 1.0
outer loop
vertex -71.1429443359375 6.965456485748291 0.0
vertex -66.49494171142578 11.067459106445312 0.0
vertex -69.63066101074219 9.04732608795166 0.0
endloop
endfacet
facet normal 0.0 0.0 1.0
outer loop
vertex -71.1429443359375 6.965456485748291 0.0
vertex -72.22344970703125 -9.71445146547012e-17 0.0
vertex -71.1429443359375 -6.965456485748291 0.0
endloop
endfacet
facet normal 0.0 0.0 -1.0
outer loop
vertex -2.736048698425293 4.1849775314331055 -10.0
vertex -3.535533905029297 3.535533905029297 -10.0
vertex -55.179935455322266 2.736048698425293 -10.0
endloop
endfacet
facet normal 3.506414315273099e-17 -4.316504052881801e-17 -1.0
outer loop
vertex -55.829376220703125 -3.535533905029297 -10.0
vertex -4.1849775314331055 -2.736048698425293 -10.0
vertex -56.62886428833008 -4.1849775314331055 -10.0
endloop
endfacet
facet normal 6.458341010938832e-17 -1.9500231575428524e-15 -1.0
outer loop
vertex -4.648941516876221 -1.8404735326766968 -10.0
vertex -4.1849775314331055 -2.736048698425293 -10.0
vertex -55.829376220703125 -3.535533905029297 -10.0
endloop
endfacet
facet normal 0.0 -0.0 -1.0
outer loop
vertex -55.179935455322266 -2.736048698425293 -10.0
vertex -4.648941516876221 -1.8404735326766968 -10.0
vertex -55.829376220703125 -3.535533905029297 -10.0
endloop
endfacet
facet normal 1.7048225511942403e-17 -9.61911049571836e-16 -1.0
outer loop
vertex -5.0 0.0 -10.0
vertex -4.648941516876221 -1.8404735326766968 -10.0
vertex -55.179935455322266 -2.736048698425293 -10.0
endloop
endfacet
facet normal -3.642875624414952e-17 1.8872372175219867e-17 -1.0
outer loop
vertex -54.71596908569336 -1.8404735326766968 -10.0
vertex -5.0 0.0 -10.0
vertex -55.179935455322266 -2.736048698425293 -10.0
endloop
endfacet
facet normal -7.196839920892294e-17 9.788904602742589e-16 -1.0
outer loop
vertex -4.648941516876221 1.8404735326766968 -10.0
vertex -5.0 0.0 -10.0
vertex -54.71596908569336 -1.8404735326766968 -10.0
endloop
endfacet
facet normal 0.0 -0.0 -1.0
outer loop
vertex -54.36491012573242 1.7763568394002505e-15 -10.0
vertex -4.648941516876221 1.8404735326766968 -10.0
vertex -54.71596908569336 -1.8404735326766968 -10.0
endloop
endfacet
facet normal 0.0 0.0 -1.0
outer loop
vertex -4.1849775314331055 2.736048698425293 -10.0
vertex -4.648941516876221 1.8404735326766968 -10.0
vertex -54.36491012573242 1.7763568394002505e-15 -10.0
endloop
endfacet
facet normal 0.0 -0.0 -1.0
outer loop
vertex -54.71596908569336 1.8404735326766968 -10.0
vertex -4.1849775314331055 2.736048698425293 -10.0
vertex -54.36491012573242 1.7763568394002505e-15 -10.0
endloop
endfacet
facet normal 0.0 0.0 -1.0
outer loop
vertex -3.535533905029297 3.535533905029297 -10.0
vertex -4.1849775314331055 2.736048698425293 -10.0
vertex -54.71596908569336 1.8404735326766968 -10.0
endloop
endfacet
facet normal 0.0 -0.0 -1.0
outer loop
vertex -55.179935455322266 2.736048698425293 -10.0
vertex -3.535533905029297 3.535533905029297 -10.0
vertex -54.71596908569336 1.8404735326766968 -10.0
endloop
endfacet
facet normal -8.694975845044645e-17 4.373120145357862e-15 -1.0
outer loop
vertex -4.1849775314331055 -2.736048698425293 -10.0
vertex -3.535533905029297 -3.535533905029297 -10.0
vertex -56.62886428833008 -4.1849775314331055 -10.0
endloop
endfacet
facet normal 0.0 -0.0 -1.0
outer loop
vertex -55.829376220703125 3.535533905029297 -10.0
vertex -2.736048698425293 4.1849775314331055 -10.0
vertex -55.179935455322266 2.736048698425293 -10.0
endloop
endfacet
facet normal 0.0 0.0 -1.0
outer loop
vertex -1.8404735326766968 4.648941516876221 -10.0
vertex -2.736048698425293 4.1849775314331055 -10.0
vertex -55.829376220703125 3.535533905029297 -10.0
endloop
endfacet
facet normal 0.0 -0.0 -1.0
outer loop
vertex -56.62886428833008 4.1849775314331055 -10.0
vertex -1.8404735326766968 4.648941516876221 -10.0
vertex -55.829376220703125 3.535533905029297 -10.0
endloop
endfacet
facet normal -4.4840306262364506e-17 5.29508416822512e-15 -1.0
outer loop
vertex -7.993605777301127e-15 5.0 -10.0
vertex -1.8404735326766968 4.648941516876221 -10.0
vertex -56.62886428833008 4.1849775314331055 -10.0
endloop
endfacet
facet normal 8.413436651756096e-17 -3.6662508220834146e-15 -1.0
outer loop
vertex -57.524436950683594 4.648941516876221 -10.0
vertex -7.993605777301127e-15 5.0 -10.0
vertex -56.62886428833008 4.1849775314331055 -10.0
endloop
endfacet
facet normal 8.244194836683257e-17 -3.388931811635883e-15 -1.0
outer loop
vertex 20.26999282836914 6.017268657684326 -10.0
vertex -7.993605777301127e-15 5.0 -10.0
vertex -57.524436950683594 4.648941516876221 -10.0
endloop
endfacet
facet normal -6.058019343432159e-17 4.7424023699217405e-15 -1.0
outer loop
vertex -59.36491012573242 5.0 -10.0
vertex 20.26999282836914 6.017268657684326 -10.0
vertex -57.524436950683594 4.648941516876221 -10.0
endloop
endfacet
facet normal 1.5022857238494063e-18 -1.1760351023466515e-16 -1.0
outer loop
vertex 3.181147575378418 20.90359878540039 -10.0
vertex 20.26999282836914 6.017268657684326 -10.0
vertex -59.36491012573242 5.0 -10.0
endloop
endfacet
facet normal -1.1253544079600176e-17 -6.743706410868806e-17 -1.0
outer loop
vertex -71.1429443359375 6.965456485748291 -10.0
vertex 3.181147575378418 20.90359878540039 -10.0
vertex -59.36491012573242 5.0 -10.0
endloop
endfacet
facet normal -7.202864608165763e-18 -8.903700645115865e-17 -1.0
outer loop
vertex 0.22032371163368225 21.14312171936035 -10.0
vertex 3.181147575378418 20.90359878540039 -10.0
vertex -71.1429443359375 6.965456485748291 -10.0
endloop
endfacet
facet normal -3.567839424072307e-17 5.4294553838649535e-17 -1.0
outer loop
vertex -61.084598541259766 13.57506275177002 -10.0
vertex 0.22032371163368225 21.14312171936035 -10.0
vertex -71.1429443359375 6.965456485748291 -10.0
endloop
endfacet
facet normal -0.0 -0.0 -1.0
outer loop
vertex -64.36491394042969 1.7763568394002505e-15 -10.0
vertex -64.01385498046875 -1.8404735326766968 -10.0
vertex -71.1429443359375 6.965456485748291 -10.0
endloop
endfacet
facet normal -9.586738087614382e-17 2.640860628667614e-17 -1.0
outer loop
vertex -2.6573166847229004 -20.976625442504883 -10.0
vertex 1.8404735326766968 -4.648941516876221 -10.0
vertex 19.226701736450195 -8.798526763916016 -10.0
endloop
endfacet
facet normal 1.0186891503339494e-15 -2.806184949446627e-16 -1.0
outer loop
vertex -7.105427357601002e-15 -5.0 -10.0
vertex 1.8404735326766968 -4.648941516876221 -10.0
vertex -2.6573166847229004 -20.976625442504883 -10.0
endloop
endfacet
facet normal -1.379422602233435e-17 -1.0889040656106029e-16 -1.0
outer loop
vertex -61.084598541259766 -13.57506275177002 -10.0
vertex -7.105427357601002e-15 -5.0 -10.0
vertex -2.6573166847229004 -20.976625442504883 -10.0
endloop
endfacet
facet normal -1.7570727380751323e-17 -8.19884416329167e-17 -1.0
outer loop
vertex -63.35922622680664 -13.087593078613281 -10.0
vertex -7.105427357601002e-15 -5.0 -10.0
vertex -61.084598541259766 -13.57506275177002 -10.0
endloop
endfacet
facet normal -2.992267301523209e-17 1.4778266548807033e-17 -1.0
outer loop
vertex -59.36491012573242 -5.0 -10.0
vertex -7.105427357601002e-15 -5.0 -10.0
vertex -63.35922622680664 -13.087593078613281 -10.0
endloop
endfacet
facet normal 0.0 -0.0 -1.0
outer loop
vertex -61.205387115478516 -4.648941516876221 -10.0
vertex -59.36491012573242 -5.0 -10.0
vertex -63.35922622680664 -13.087593078613281 -10.0
endloop
endfacet
facet normal 0.0 -0.0 -1.0
outer loop
vertex -62.10095977783203 -4.1849775314331055 -10.0
vertex -61.205387115478516 -4.648941516876221 -10.0
vertex -63.35922622680664 -13.087593078613281 -10.0
endloop
endfacet
facet normal 0.0 -0.0 -1.0
outer loop
vertex -62.90044403076172 -3.535533905029297 -10.0
vertex -62.10095977783203 -4.1849775314331055 -10.0
vertex -63.35922622680664 -13.087593078613281 -10.0
endloop
endfacet
facet normal 0.0 -0.0 -1.0
outer loop
vertex -63.549888610839844 -2.736048698425293 -10.0
vertex -62.90044403076172 -3.535533905029297 -10.0
vertex -63.35922622680664 -13.087593078613281 -10.0
endloop
endfacet
facet normal 0.0 0.0 -1.0
outer loop
vertex -71.1429443359375 6.965456485748291 -10.0
vertex -63.549888610839844 -2.736048698425293 -10.0
vertex -63.35922622680664 -13.087593078613281 -10.0
endloop
endfacet
facet normal -0.0 -0.0 -1.0
outer loop
vertex -64.01385498046875 -1.8404735326766968 -10.0
vertex -63.549888610839844 -2.736048698425293 -10.0
vertex -71.1429443359375 6.965456485748291 -10.0
endloop
endfacet
facet normal 2.5559991770090637e-17 -4.417658778850829e-16 -1.0
outer loop
vertex -2.6573166847229004 20.976625442504883 -10.0
vertex 0.22032371163368225 21.14312171936035 -10.0
vertex -61.084598541259766 13.57506275177002 -10.0
endloop
endfacet
facet normal -0.0 0.0 -1.0
outer loop
vertex -64.01385498046875 1.8404735326766968 -10.0
vertex -64.36491394042969 1.7763568394002505e-15 -10.0
vertex -71.1429443359375 6.965456485748291 -10.0
endloop
endfacet
facet normal -0.0 0.0 -1.0
outer loop
vertex -63.549888610839844 2.736048698425293 -10.0
vertex -64.01385498046875 1.8404735326766968 -10.0
vertex -71.1429443359375 6.965456485748291 -10.0
endloop
endfacet
facet normal -0.0 0.0 -1.0
outer loop
vertex -62.90044403076172 3.535533905029297 -10.0
vertex -63.549888610839844 2.736048698425293 -10.0
vertex -71.1429443359375 6.965456485748291 -10.0
endloop
endfacet
facet normal -0.0 0.0 -1.0
outer loop
vertex -62.10095977783203 4.1849775314331055 -10.0
vertex -62.90044403076172 3.535533905029297 -10.0
vertex -71.1429443359375 6.965456485748291 -10.0
endloop
endfacet
facet normal -0.0 0.0 -1.0
outer loop
vertex -61.205387115478516 4.648941516876221 -10.0
vertex -62.10095977783203 4.1849775314331055 -10.0
vertex -71.1429443359375 6.965456485748291 -10.0
endloop
endfacet
facet normal -2.992267301523209e-17 4.9031285657291385e-15 -1.0
outer loop
vertex -1.8404735326766968 -4.648941516876221 -10.0
vertex -7.105427357601002e-15 -5.0 -10.0
vertex -59.36491012573242 -5.0 -10.0
endloop
endfacet
facet normal -0.0 0.0 -1.0
outer loop
vertex -59.36491012573242 5.0 -10.0
vertex -61.205387115478516 4.648941516876221 -10.0
vertex -71.1429443359375 6.965456485748291 -10.0
endloop
endfacet
facet normal -2.309335241834731e-17 3.784076493178277e-15 -1.0
outer loop
vertex -2.736048698425293 -4.1849775314331055 -10.0
vertex -1.8404735326766968 -4.648941516876221 -10.0
vertex -59.36491012573242 -5.0 -10.0
endloop
endfacet
facet normal 3.3928434097863034e-17 -1.7787458958279812e-16 -1.0
outer loop
vertex -57.524436950683594 -4.648941516876221 -10.0
vertex -2.736048698425293 -4.1849775314331055 -10.0
vertex -59.36491012573242 -5.0 -10.0
endloop
endfacet
facet normal 7.793458826947192e-17 -5.374455814064058e-15 -1.0
outer loop
vertex -3.535533905029297 -3.535533905029297 -10.0
vertex -2.736048698425293 -4.1849775314331055 -10.0
vertex -57.524436950683594 -4.648941516876221 -10.0
endloop
endfacet
facet normal -3.4266320834478695e-17 6.614322128175711e-17 -1.0
outer loop
vertex -56.62886428833008 -4.1849775314331055 -10.0
vertex -3.535533905029297 -3.535533905029297 -10.0
vertex -57.524436950683594 -4.648941516876221 -10.0
endloop
endfacet
facet normal -0.0 -0.0 -1.0
outer loop
vertex -71.1429443359375 6.965456485748291 -10.0
vertex -68.92337799072266 -3.7444958686828613 -10.0
vertex -72.22344970703125 4.6794962882995605 -10.0
endloop
endfacet
facet normal 0.0 -0.0 -1.0
outer loop
vertex -2.6573166847229004 -20.976625442504883 -10.0
vertex 9.035859107971191 -16.2374210357666 -10.0
vertex 0.22032371163368225 -21.14312171936035 -10.0
endloop
endfacet
facet normal 0.0 0.0 -1.0
outer loop
vertex -63.35922622680664 -13.087593078613281 -10.0
vertex -68.92337799072266 -3.7444958686828613 -10.0
vertex -71.1429443359375 6.965456485748291 -10.0
endloop
endfacet
facet normal 0.0 0.0 -1.0
outer loop
vertex -65.62330627441406 -12.168488502502441 -10.0
vertex -68.92337799072266 -3.7444958686828613 -10.0
vertex -63.35922622680664 -13.087593078613281 -10.0
endloop
endfacet
facet normal 0.0 0.0 -1.0
outer loop
vertex -67.75535583496094 -10.8092622756958 -10.0
vertex -68.92337799072266 -3.7444958686828613 -10.0
vertex -65.62330627441406 -12.168488502502441 -10.0
endloop
endfacet
facet normal 0.0 0.0 -1.0
outer loop
vertex -69.63066101074219 -9.04732608795166 -10.0
vertex -68.92337799072266 -3.7444958686828613 -10.0
vertex -67.75535583496094 -10.8092622756958 -10.0
endloop
endfacet
facet normal 0.0 -0.0 -1.0
outer loop
vertex -71.1429443359375 -6.965456485748291 -10.0
vertex -68.92337799072266 -3.7444958686828613 -10.0
vertex -69.63066101074219 -9.04732608795166 -10.0
endloop
endfacet
facet normal 0.0 -0.0 -1.0
outer loop
vertex -72.22344970703125 -4.6794962882995605 -10.0
vertex -68.92337799072266 -3.7444958686828613 -10.0
vertex -71.1429443359375 -6.965456485748291 -10.0
endloop
endfacet
facet normal 0.0 -0.0 -1.0
outer loop
vertex -72.85072326660156 -2.317856550216675 -10.0
vertex -68.92337799072266 -3.7444958686828613 -10.0
vertex -72.22344970703125 -4.6794962882995605 -10.0
endloop
endfacet
facet normal -0.0 -0.0 -1.0
outer loop
vertex -73.04846954345703 0.0 -10.0
vertex -68.92337799072266 -3.7444958686828613 -10.0
vertex -72.85072326660156 -2.317856550216675 -10.0
endloop
endfacet
facet normal -0.0 -0.0 -1.0
outer loop
vertex -72.85072326660156 2.317856550216675 -10.0
vertex -68.92337799072266 -3.7444958686828613 -10.0
vertex -73.04846954345703 0.0 -10.0
endloop
endfacet
facet normal -0.0 -0.0 -1.0
outer loop
vertex -72.22344970703125 4.6794962882995605 -10.0
vertex -68.92337799072266 -3.7444958686828613 -10.0
vertex -72.85072326660156 2.317856550216675 -10.0
endloop
endfacet
facet normal 0.0 -0.0 -1.0
outer loop
vertex 0.22032371163368225 -21.14312171936035 -10.0
vertex 9.035859107971191 -16.2374210357666 -10.0
vertex 3.181147575378418 -20.90359878540039 -10.0
endloop
endfacet
facet normal 0.0 0.0 -1.0
outer loop
vertex -71.1429443359375 6.965456485748291 -10.0
vertex -66.49494171142578 11.067459106445312 -10.0
vertex -61.084598541259766 13.57506275177002 -10.0
endloop
endfacet
facet normal -2.0979998134281787e-15 2.3772551411931336e-15 -1.0
outer loop
vertex -69.63066101074219 9.04732608795166 -10.0
vertex -66.49494171142578 11.067459106445312 -10.0
vertex -71.1429443359375 6.965456485748291 -10.0
endloop
endfacet
facet normal -1.802311199453543e-15 1.918277844987419e-15 -1.0
outer loop
vertex -67.75535583496094 10.8092622756958 -10.0
vertex -66.49494171142578 11.067459106445312 -10.0
vertex -69.63066101074219 9.04732608795166 -10.0
endloop
endfacet
facet normal -1.6821447528089437e-15 1.331675765278294e-15 -1.0
outer loop
vertex -65.62330627441406 12.168488502502441 -10.0
vertex -66.49494171142578 11.067459106445312 -10.0
vertex -67.75535583496094 10.8092622756958 -10.0
endloop
endfacet
facet normal -0.0 0.0 -1.0
outer loop
vertex -63.35922622680664 13.087593078613281 -10.0
vertex -66.49494171142578 11.067459106445312 -10.0
vertex -65.62330627441406 12.168488502502441 -10.0
endloop
endfacet
facet normal -0.0 0.0 -1.0
outer loop
vertex -61.084598541259766 13.57506275177002 -10.0
vertex -66.49494171142578 11.067459106445312 -10.0
vertex -63.35922622680664 13.087593078613281 -10.0
endloop
endfacet
facet normal -0.0 0.0 1.0
outer loop
vertex -71.1429443359375 6.965456485748291 0.0
vertex -64.01385498046875 1.8404735326766968 0.0
vertex -63.549888610839844 2.736048698425293 0.0
endloop
endfacet
facet normal 0.0 -0.0 1.0
outer loop
vertex -64.36491394042969 2.4424906541753444e-15 0.0
vertex -64.01385498046875 1.8404735326766968 0.0
vertex -71.1429443359375 6.965456485748291 0.0
endloop
endfacet
facet normal 0.0 0.0 1.0
outer loop
vertex -62.90044403076172 3.535533905029297 0.0
vertex -71.1429443359375 6.965456485748291 0.0
vertex -63.549888610839844 2.736048698425293 0.0
endloop
endfacet
facet normal 0.0 0.0 1.0
outer loop
vertex -64.01385498046875 -1.8404735326766968 0.0
vertex -64.36491394042969 2.4424906541753444e-15 0.0
vertex -71.1429443359375 6.965456485748291 0.0
endloop
endfacet
facet normal 0.0 0.0 1.0
outer loop
vertex -62.10095977783203 4.1849775314331055 0.0
vertex -71.1429443359375 6.965456485748291 0.0
vertex -62.90044403076172 3.535533905029297 0.0
endloop
endfacet
facet normal -2.7090688633352178e-15 -1.9680654357754018e-16 -1.0
outer loop
vertex 21.144269943237305 -3.9968028886505635e-15 -10.0
vertex 20.59612464904785 -1.4806245565414429 -10.0
vertex 20.922258377075195 3.0560197830200195 -10.0
endloop
endfacet
facet normal -3.514381520409863e-16 -5.227634299360549e-16 -1.0
outer loop
vertex 3.181147575378418 20.90359878540039 -10.0
vertex 12.682571411132812 14.516077041625977 -10.0
vertex 20.26999282836914 6.017268657684326 -10.0
endloop
endfacet
facet normal 9.059751113175301e-16 1.3476358777078147e-15 -1.0
outer loop
vertex 6.13844108581543 20.233627319335938 -10.0
vertex 12.682571411132812 14.516077041625977 -10.0
vertex 3.181147575378418 20.90359878540039 -10.0
endloop
endfacet
facet normal 2.13351267559344e-16 5.548801664388594e-16 -1.0
outer loop
vertex 8.998391151428223 19.133975982666016 -10.0
vertex 12.682571411132812 14.516077041625977 -10.0
vertex 6.13844108581543 20.233627319335938 -10.0
endloop
endfacet
facet normal 3.920679667103905e-16 6.974611165710574e-16 -1.0
outer loop
vertex 11.669378280639648 17.632518768310547 -10.0
vertex 12.682571411132812 14.516077041625977 -10.0
vertex 8.998391151428223 19.133975982666016 -10.0
endloop
endfacet
facet normal -1.3873572760110683e-15 1.1894841326644777e-16 -1.0
outer loop
vertex 14.071500778198242 15.7820463180542 -10.0
vertex 12.682571411132812 14.516077041625977 -10.0
vertex 11.669378280639648 17.632518768310547 -10.0
endloop
endfacet
facet normal -2.7436307721985086e-16 -1.1021482595389813e-15 -1.0
outer loop
vertex 16.144336700439453 13.654322624206543 -10.0
vertex 12.682571411132812 14.516077041625977 -10.0
vertex 14.071500778198242 15.7820463180542 -10.0
endloop
endfacet
facet normal -4.660450979362821e-16 -1.872157112767659e-15 -1.0
outer loop
vertex 17.851394653320312 11.331719398498535 -10.0
vertex 12.682571411132812 14.516077041625977 -10.0
vertex 16.144336700439453 13.654322624206543 -10.0
endloop
endfacet
facet normal 1.6818922311115435e-15 1.6143566001610636e-15 -1.0
outer loop
vertex 19.226701736450195 8.798526763916016 -10.0
vertex 12.682571411132812 14.516077041625977 -10.0
vertex 17.851394653320312 11.331719398498535 -10.0
endloop
endfacet
facet normal 4.037732208876161e-16 1.5146132296055086e-16 -1.0
outer loop
vertex 20.26999282836914 6.017268657684326 -10.0
vertex 12.682571411132812 14.516077041625977 -10.0
vertex 19.226701736450195 8.798526763916016 -10.0
endloop
endfacet
facet normal 1.0525143522913658e-15 4.5780751061833195e-17 -1.0
outer loop
vertex 20.26999282836914 6.017268657684326 -10.0
vertex 20.59612464904785 -1.4806245565414429 -10.0
vertex 19.226701736450195 -8.798526763916016 -10.0
endloop
endfacet
facet normal -3.3934848254856117e-15 -1.4760491430060004e-16 -1.0
outer loop
vertex 20.922258377075195 3.0560197830200195 -10.0
vertex 20.59612464904785 -1.4806245565414429 -10.0
vertex 20.26999282836914 6.017268657684326 -10.0
endloop
endfacet
facet normal -0.0 0.0 1.0
outer loop
vertex 20.26999282836914 6.017268657684326 0.0
vertex 13.530349731445312 -8.5888032913208 0.0
vertex 20.922258377075195 3.0560197830200195 0.0
endloop
endfacet
facet normal -2.078442669709024e-15 -4.302716143210624e-16 -1.0
outer loop
vertex 20.922258377075195 -3.0560197830200195 -10.0
vertex 20.59612464904785 -1.4806245565414429 -10.0
vertex 21.144269943237305 -3.9968028886505635e-15 -10.0
endloop
endfacet
facet normal 0.0 0.0 -1.0
outer loop
vertex 20.26999282836914 -6.017268657684326 -10.0
vertex 20.59612464904785 -1.4806245565414429 -10.0
vertex 20.922258377075195 -3.0560197830200195 -10.0
endloop
endfacet
facet normal 2.1063092066407434e-15 -1.5141940806455157e-16 -1.0
outer loop
vertex 19.226701736450195 -8.798526763916016 -10.0
vertex 20.59612464904785 -1.4806245565414429 -10.0
vertex 20.26999282836914 -6.017268657684326 -10.0
endloop
endfacet
facet normal 2.1760137448620067e-16 -5.36894110018184e-16 -1.0
outer loop
vertex 19.226701736450195 -8.798526763916016 -10.0
vertex 9.035859107971191 -16.2374210357666 -10.0
vertex -2.6573166847229004 -20.976625442504883 -10.0
endloop
endfacet
facet normal 5.591594298279474e-16 -1.0048083979108196e-15 -1.0
outer loop
vertex 17.851394653320312 -11.331719398498535 -10.0
vertex 9.035859107971191 -16.2374210357666 -10.0
vertex 19.226701736450195 -8.798526763916016 -10.0
endloop
endfacet
facet normal -7.201475705742838e-16 1.294103713078698e-15 -1.0
outer loop
vertex 16.144336700439453 -13.654322624206543 -10.0
vertex 9.035859107971191 -16.2374210357666 -10.0
vertex 17.851394653320312 -11.331719398498535 -10.0
endloop
endfacet
facet normal 8.279043625017871e-17 -9.155175727430603e-16 -1.0
outer loop
vertex 14.071500778198242 -15.7820463180542 -10.0
vertex 9.035859107971191 -16.2374210357666 -10.0
vertex 16.144336700439453 -13.654322624206543 -10.0
endloop
endfacet
facet normal 0.0 0.0 -1.0
outer loop
vertex 11.669378280639648 -17.632518768310547 -10.0
vertex 9.035859107971191 -16.2374210357666 -10.0
vertex 14.071500778198242 -15.7820463180542 -10.0
endloop
endfacet
facet normal 0.0 0.0 -1.0
outer loop
vertex 8.998391151428223 -19.133975982666016 -10.0
vertex 9.035859107971191 -16.2374210357666 -10.0
vertex 11.669378280639648 -17.632518768310547 -10.0
endloop
endfacet
facet normal 0.0 -0.0 -1.0
outer loop
vertex 6.13844108581543 -20.233627319335938 -10.0
vertex 9.035859107971191 -16.2374210357666 -10.0
vertex 8.998391151428223 -19.133975982666016 -10.0
endloop
endfacet
facet normal 0.0 -0.0 -1.0
outer loop
vertex 3.181147575378418 -20.90359878540039 -10.0
vertex 9.035859107971191 -16.2374210357666 -10.0
vertex 6.13844108581543 -20.233627319335938 -10.0
endloop
endfacet
endsolid link2_ascii.stl
